<svg width="563" height="559" viewBox="0 0 563 559" fill="none" xmlns="http://www.w3.org/2000/svg">
<path style="mix-blend-mode:overlay" opacity="0.43" d="M475.324 555.276H75.8109L225.142 159.624H325.993L475.324 555.276Z" fill="url(#paint0_linear_3_669)"/>
<path d="M67.0948 444.632L72.1585 415.092L98.7752 407.706" stroke="#283035" stroke-width="2" stroke-linecap="round" stroke-linejoin="round"/>
<path d="M149.941 344.969H368.327C371.261 344.969 374.075 346.396 376.15 348.936C378.225 351.476 379.391 354.921 379.391 358.513V534.918H138.879V358.513C138.879 354.921 140.045 351.477 142.119 348.937C144.194 346.397 147.007 344.97 149.941 344.969Z" fill="#D2DCE6"/>
<path d="M149.941 344.969H368.327C371.261 344.969 374.075 346.396 376.15 348.936C378.225 351.476 379.391 354.921 379.391 358.513V534.918H138.879V358.513C138.879 354.921 140.045 351.477 142.119 348.937C144.194 346.397 147.007 344.97 149.941 344.969V344.969Z" stroke="#283035" stroke-width="2" stroke-linecap="round" stroke-linejoin="round"/>
<path d="M361.288 512.99V367.356H156.982V512.99H361.288Z" fill="#FF5C5C"/>
<path opacity="0.3" d="M275.568 489.757H309.187" stroke="white" stroke-width="2" stroke-linecap="round" stroke-linejoin="round"/>
<g opacity="0.3">
<path opacity="0.3" d="M357.531 444.486C358.178 444.436 358.82 444.654 359.353 445.106C359.887 445.557 360.28 446.215 360.471 446.974V437.906C359.761 437.651 359.025 437.52 358.286 437.516H357.531C355.904 437.516 355.091 438.512 355.092 440.503V441.569C355.092 443.49 355.904 444.486 357.531 444.486Z" fill="white"/>
<path opacity="0.3" d="M360.471 487.944C360.277 488.699 359.882 489.352 359.349 489.8C358.816 490.248 358.176 490.464 357.531 490.414C355.904 490.414 355.091 491.41 355.092 493.4V494.467C355.092 496.458 355.905 497.453 357.531 497.454H358.286C359.025 497.45 359.761 497.319 360.471 497.065V487.944Z" fill="white"/>
</g>
<path d="M361.288 512.99V367.356H156.982V512.99H361.288Z" stroke="#283035" stroke-width="2" stroke-linecap="round" stroke-linejoin="round"/>
<path d="M112.34 535.045H405.933C406.619 535.045 407.276 535.379 407.761 535.972C408.246 536.566 408.519 537.371 408.519 538.21V542.002C408.519 546.199 407.157 550.225 404.732 553.193C402.307 556.161 399.018 557.828 395.588 557.828H122.685C119.255 557.828 115.966 556.161 113.541 553.193C111.116 550.225 109.754 546.199 109.754 542.002V538.21C109.754 537.371 110.026 536.566 110.511 535.972C110.996 535.379 111.654 535.045 112.34 535.045Z" fill="#E5E5E5"/>
<path d="M395.586 550.702H122.682C119.581 550.7 116.585 549.332 114.239 546.85C111.894 544.367 110.356 540.935 109.906 537.18C109.809 537.51 109.757 537.857 109.754 538.208V542C109.754 546.198 111.116 550.224 113.541 553.192C115.966 556.16 119.255 557.828 122.685 557.828H395.588C399.018 557.828 402.307 556.16 404.732 553.192C407.157 550.224 408.519 546.198 408.519 542V538.208C408.516 537.857 408.464 537.51 408.367 537.18C407.917 540.936 406.378 544.369 404.032 546.852C401.685 549.335 398.687 550.701 395.586 550.702Z" fill="#CFD1D0"/>
<path d="M112.34 535.045H405.933C406.619 535.045 407.276 535.379 407.761 535.972C408.246 536.566 408.519 537.371 408.519 538.21V542.002C408.519 546.199 407.157 550.225 404.732 553.193C402.307 556.161 399.018 557.828 395.588 557.828H122.685C119.255 557.828 115.966 556.161 113.541 553.193C111.116 550.225 109.754 546.199 109.754 542.002V538.21C109.754 537.371 110.026 536.566 110.511 535.972C110.996 535.379 111.654 535.045 112.34 535.045Z" stroke="#283035" stroke-width="2" stroke-linecap="round" stroke-linejoin="round"/>
<path d="M231.981 534.918H286.29C286.29 536.599 285.745 538.211 284.775 539.4C283.805 540.589 282.489 541.257 281.117 541.257H237.153C235.781 541.257 234.466 540.589 233.496 539.4C232.526 538.211 231.981 536.599 231.981 534.918Z" fill="#686B6D"/>
<path d="M231.981 534.918H286.29C286.29 536.599 285.745 538.211 284.775 539.4C283.805 540.589 282.489 541.257 281.117 541.257H237.153C235.781 541.257 234.466 540.589 233.496 539.4C232.526 538.211 231.981 536.599 231.981 534.918Z" stroke="#283035" stroke-width="2" stroke-linecap="round" stroke-linejoin="round"/>
<path d="M258.626 362.193C261.483 362.193 263.799 359.359 263.799 355.861C263.799 352.364 261.483 349.529 258.626 349.529C255.77 349.529 253.454 352.364 253.454 355.861C253.454 359.359 255.77 362.193 258.626 362.193Z" fill="#686B6D"/>
<path d="M258.626 362.193C261.483 362.193 263.799 359.359 263.799 355.861C263.799 352.364 261.483 349.529 258.626 349.529C255.77 349.529 253.454 352.364 253.454 355.861C253.454 359.359 255.77 362.193 258.626 362.193Z" stroke="#283035" stroke-width="2" stroke-linecap="round" stroke-linejoin="round"/>
<path d="M48.2761 557.827H80.0211C81.1223 557.827 82.1858 557.336 83.0122 556.445C83.8387 555.554 84.3714 554.324 84.5106 552.987L92.99 471.543H35.3098L43.7898 552.987C43.929 554.324 44.4612 555.552 45.287 556.443C46.1128 557.334 47.1755 557.826 48.2761 557.827Z" fill="#EAD57D"/>
<path d="M44.1338 471.545L50.8616 546.763C51 548.31 51.6002 549.741 52.5469 550.78C53.4936 551.819 54.7204 552.393 55.9919 552.393H84.576L84.5145 552.987C84.3753 554.324 83.8426 555.554 83.0161 556.445C82.1897 557.336 81.1262 557.827 80.025 557.827H48.28C47.1789 557.827 46.1156 557.335 45.2893 556.444C44.463 555.553 43.9303 554.324 43.7911 552.987L35.3098 471.545H44.1338Z" fill="#E5C66E"/>
<path d="M48.2761 557.827H80.0211C81.1223 557.827 82.1858 557.336 83.0122 556.445C83.8387 555.554 84.3714 554.324 84.5106 552.987L92.99 471.543H35.3098L43.7898 552.987C43.929 554.324 44.4612 555.552 45.287 556.443C46.1128 557.334 47.1755 557.826 48.2761 557.827V557.827Z" stroke="#283035" stroke-width="2" stroke-linecap="round" stroke-linejoin="round"/>
<path d="M90.815 534.381L94.916 494.991H33.3831L37.4841 534.381H90.815Z" fill="#5CBF84"/>
<path d="M90.815 534.381L94.916 494.991H33.3831L37.4841 534.381H90.815Z" fill="#4FB277"/>
<path d="M90.5603 529.835L93.9992 494.991H42.4004L45.5684 527.07C45.6438 527.832 45.9446 528.535 46.4141 529.044C46.8835 529.554 47.4891 529.835 48.1164 529.835H90.5603Z" fill="#5CBF84"/>
<path d="M90.815 534.381L94.916 494.991H33.3831L37.4841 534.381H90.815Z" stroke="#283035" stroke-width="2" stroke-linecap="round" stroke-linejoin="round"/>
<path d="M31.6038 471.545H96.6959C100.624 471.545 103.808 467.646 103.808 462.838C103.808 458.029 100.624 454.13 96.6959 454.13H31.6038C27.676 454.13 24.4919 458.029 24.4919 462.838C24.4919 467.646 27.676 471.545 31.6038 471.545Z" fill="#5CBF84"/>
<path d="M31.6038 471.545H96.6959C100.624 471.545 103.808 467.646 103.808 462.838C103.808 458.029 100.624 454.13 96.6959 454.13H31.6038C27.676 454.13 24.4919 458.029 24.4919 462.838C24.4919 467.646 27.676 471.545 31.6038 471.545Z" fill="#4FB277"/>
<path d="M38.9589 467.782H98.2308C101.311 467.782 103.807 464.726 103.807 460.956C103.807 457.186 101.311 454.13 98.2308 454.13H38.9589C35.8791 454.13 33.3825 457.186 33.3825 460.956C33.3825 464.726 35.8791 467.782 38.9589 467.782Z" fill="#5CBF84"/>
<path d="M31.6038 471.545H96.6959C100.624 471.545 103.808 467.646 103.808 462.838C103.808 458.029 100.624 454.13 96.6959 454.13H31.6038C27.676 454.13 24.4919 458.029 24.4919 462.838C24.4919 467.646 27.676 471.545 31.6038 471.545Z" stroke="#283035" stroke-width="2" stroke-linecap="round" stroke-linejoin="round"/>
<path d="M38.2877 454.13H90.0107L88.9872 444.632H39.3118L38.2877 454.13Z" fill="#5CBF84"/>
<path d="M39.3118 444.632H54.4874L50.8952 454.13H38.2877L39.3118 444.632Z" fill="#54AF79"/>
<path d="M38.2877 454.13H90.0107L88.9872 444.632H39.3118L38.2877 454.13Z" stroke="#283035" stroke-width="2" stroke-linecap="round" stroke-linejoin="round"/>
<path d="M415.302 557.905C415.331 551.842 417.318 546.04 420.83 541.766C424.342 537.491 429.093 535.092 434.044 535.092C438.996 535.092 443.747 537.491 447.259 541.766C450.771 546.04 452.758 551.842 452.787 557.905H415.302Z" fill="#E5E5E5"/>
<path d="M434.045 550.656C436.725 550.687 439.38 550.016 441.831 548.687C444.281 547.358 446.471 545.402 448.253 542.951C446.495 540.445 444.315 538.433 441.863 537.054C439.41 535.675 436.743 534.961 434.044 534.961C431.346 534.961 428.679 535.675 426.226 537.054C423.774 538.433 421.594 540.445 419.836 542.951C421.618 545.402 423.808 547.358 426.259 548.687C428.709 550.016 431.364 550.688 434.045 550.656Z" fill="#CFD1D0"/>
<path d="M415.302 557.905C415.331 551.842 417.318 546.04 420.83 541.766C424.342 537.491 429.093 535.092 434.044 535.092C438.996 535.092 443.747 537.491 447.259 541.766C450.771 546.04 452.758 551.842 452.787 557.905H415.302Z" stroke="#283035" stroke-width="2" stroke-linecap="round" stroke-linejoin="round"/>
<g style="mix-blend-mode:multiply" opacity="0.14">
<path d="M289.786 395.569H191.523C188.663 395.569 186.345 398.407 186.345 401.908V495.288C186.345 498.789 188.663 501.626 191.523 501.626H289.786C292.646 501.626 294.964 498.789 294.964 495.288V401.908C294.964 398.407 292.646 395.569 289.786 395.569Z" fill="black"/>
</g>
<path d="M284.722 390.027H186.459C183.599 390.027 181.281 392.865 181.281 396.365V489.748C181.281 493.248 183.599 496.086 186.459 496.086H284.722C287.581 496.086 289.899 493.248 289.899 489.748V396.365C289.899 392.865 287.581 390.027 284.722 390.027Z" fill="#353F49"/>
<path d="M284.722 390.027H186.459C183.599 390.027 181.281 392.865 181.281 396.365V489.748C181.281 493.248 183.599 496.086 186.459 496.086H284.722C287.581 496.086 289.899 493.248 289.899 489.748V396.365C289.899 392.865 287.581 390.027 284.722 390.027Z" stroke="#283035" stroke-width="2" stroke-linecap="round" stroke-linejoin="round"/>
<path d="M186.458 390.027H284.722C286.095 390.027 287.412 390.695 288.383 391.884C289.354 393.072 289.899 394.685 289.899 396.366V405.858H181.281V396.366C181.281 394.685 181.826 393.073 182.797 391.884C183.768 390.695 185.085 390.027 186.458 390.027Z" fill="#EAEEEF"/>
<path d="M186.458 390.027H284.722C286.095 390.027 287.412 390.695 288.383 391.884C289.354 393.072 289.899 394.685 289.899 396.366V405.858H181.281V396.366C181.281 394.685 181.826 393.073 182.797 391.884C183.768 390.695 185.085 390.027 186.458 390.027Z" stroke="#283035" stroke-width="2" stroke-linecap="round" stroke-linejoin="round"/>
<path opacity="0.35" d="M190.548 400.414C191.664 400.414 192.568 399.307 192.568 397.94C192.568 396.574 191.664 395.467 190.548 395.467C189.432 395.467 188.527 396.574 188.527 397.94C188.527 399.307 189.432 400.414 190.548 400.414Z" fill="#283035"/>
<path opacity="0.35" d="M196.905 400.414C198.021 400.414 198.926 399.307 198.926 397.94C198.926 396.574 198.021 395.467 196.905 395.467C195.789 395.467 194.885 396.574 194.885 397.94C194.885 399.307 195.789 400.414 196.905 400.414Z" fill="#283035"/>
<path opacity="0.35" d="M202.94 400.414C204.056 400.414 204.961 399.307 204.961 397.94C204.961 396.574 204.056 395.467 202.94 395.467C201.824 395.467 200.92 396.574 200.92 397.94C200.92 399.307 201.824 400.414 202.94 400.414Z" fill="#283035"/>
<path d="M186.345 411.395H193.457" stroke="#46BB86" stroke-width="2" stroke-miterlimit="10"/>
<path d="M196.043 411.395H215.44" stroke="#46BB86" stroke-width="2" stroke-miterlimit="10"/>
<path d="M186.345 417.722H215.44" stroke="#389ABE" stroke-width="2" stroke-miterlimit="10"/>
<path d="M192.164 424.062H206.388" stroke="#E5C689" stroke-width="2" stroke-miterlimit="10"/>
<path d="M208.974 424.062H224.491" stroke="#F2F3F4" stroke-width="2" stroke-miterlimit="10"/>
<path d="M199.923 430.391H229.663" stroke="#F2F3F4" stroke-width="2" stroke-miterlimit="10"/>
<path d="M199.923 436.718H221.905" stroke="#FFA49F" stroke-width="2" stroke-miterlimit="10"/>
<path d="M192.164 443.058H224.491" stroke="#F2F3F4" stroke-width="2" stroke-miterlimit="10"/>
<path d="M186.345 448.598H203.802" stroke="#389ABE" stroke-width="2" stroke-miterlimit="10"/>
<g opacity="0.3">
<path opacity="0.3" d="M336.753 479.263C336.753 476.135 335.765 473.932 333.791 472.581C332.397 471.657 331.816 470.945 331.816 469.311V466.541C331.816 464.622 332.513 464.195 333.733 463.2C335.765 462.134 336.753 459.859 336.753 456.447V450.404C336.753 445.57 338.205 442.015 340.296 440.522C341.859 439.157 343.719 438.39 345.639 438.318H346.394C348.02 438.318 348.833 439.313 348.833 441.304V442.366C348.833 444.285 348.02 445.281 346.394 445.281C344.131 445.281 343.025 447.271 343.025 451.323V458.788C343.083 460.6 342.714 462.394 341.962 463.957C341.211 465.52 340.108 466.785 338.786 467.603L338.263 467.816V467.958C338.859 468.174 339.412 468.537 339.889 469.025C341.341 470.09 343.025 472.579 343.025 476.915V485.233C343.025 489.214 344.129 491.205 346.394 491.205C348.02 491.205 348.833 492.2 348.833 494.19V495.257C348.833 497.247 348.02 498.242 346.394 498.243H345.639C343.719 498.171 341.859 497.404 340.296 496.039C338.205 494.546 336.753 490.921 336.753 486.157V479.263Z" fill="white"/>
</g>
<path d="M45.346 517.38L46.6391 515.841C51.5459 520.709 57.6705 523.365 63.987 523.365C70.3034 523.365 76.428 520.709 81.3349 515.841L82.9512 517.775" stroke="#283035" stroke-width="2" stroke-linecap="round" stroke-linejoin="round"/>
<path d="M60.023 509.399C60.023 508.5 59.7314 507.638 59.2123 507.003C58.6933 506.367 57.9893 506.01 57.2552 506.01V506.01C56.5211 506.01 55.8171 506.367 55.298 507.003C54.779 507.638 54.4874 508.5 54.4874 509.399V512.503" stroke="#283035" stroke-width="2" stroke-linecap="round" stroke-linejoin="round"/>
<path d="M68.2754 509.399C68.2754 508.5 68.567 507.638 69.0861 507.003C69.6051 506.367 70.3092 506.01 71.0432 506.01V506.01C71.7773 506.01 72.4813 506.367 73.0004 507.003C73.5194 507.638 73.8111 508.5 73.8111 509.399V512.503" stroke="#283035" stroke-width="2" stroke-linecap="round" stroke-linejoin="round"/>
<path d="M518.429 455.012H468.128C464.879 455.012 462.245 458.237 462.245 462.215V550.703C462.245 554.68 464.879 557.905 468.128 557.905H518.429C521.678 557.905 524.312 554.68 524.312 550.703V462.215C524.312 458.237 521.678 455.012 518.429 455.012Z" fill="#E5E5E5"/>
<path d="M518.429 455.012H517.683C517.791 455.556 517.846 456.114 517.847 456.674V545.162C517.847 547.072 517.227 548.904 516.124 550.255C515.02 551.606 513.524 552.365 511.964 552.365H462.412C462.718 553.941 463.448 555.346 464.486 556.351C465.524 557.356 466.809 557.904 468.132 557.905H518.433C519.993 557.905 521.49 557.146 522.593 555.795C523.696 554.445 524.316 552.613 524.316 550.703V462.215C524.316 461.268 524.164 460.331 523.868 459.457C523.572 458.583 523.138 457.789 522.592 457.12C522.045 456.451 521.396 455.921 520.682 455.559C519.967 455.197 519.202 455.011 518.429 455.012Z" fill="#CFD1D0"/>
<path d="M518.429 455.012H468.128C464.879 455.012 462.245 458.237 462.245 462.215V550.703C462.245 554.68 464.879 557.905 468.128 557.905H518.429C521.678 557.905 524.312 554.68 524.312 550.703V462.215C524.312 458.237 521.678 455.012 518.429 455.012Z" stroke="#283035" stroke-width="2" stroke-linecap="round" stroke-linejoin="round"/>
<path d="M503.623 449.038H498.451V446.663C498.451 444.984 497.906 443.373 496.936 442.186C495.966 440.998 494.65 440.331 493.279 440.331C491.907 440.331 490.591 440.998 489.621 442.186C488.651 443.373 488.106 444.984 488.106 446.663V449.038H482.934C481.562 449.038 480.247 449.705 479.277 450.893C478.307 452.08 477.762 453.691 477.762 455.37C477.762 457.049 478.307 458.66 479.277 459.848C480.247 461.035 481.562 461.702 482.934 461.702H503.623C504.995 461.702 506.311 461.035 507.281 459.848C508.25 458.66 508.795 457.049 508.795 455.37C508.795 453.691 508.25 452.08 507.281 450.893C506.311 449.705 504.995 449.038 503.623 449.038Z" fill="#F7B66F"/>
<path d="M506.026 449.771C506.236 450.708 506.266 451.693 506.114 452.647C505.961 453.602 505.631 454.5 505.147 455.272C504.664 456.044 504.042 456.669 503.329 457.099C502.616 457.528 501.832 457.749 501.037 457.746H480.348C479.51 457.747 478.685 457.497 477.945 457.019C478.24 458.362 478.889 459.549 479.791 460.395C480.693 461.242 481.797 461.701 482.934 461.702H503.623C504.779 461.701 505.901 461.226 506.81 460.353C507.719 459.481 508.364 458.26 508.64 456.887C508.917 455.514 508.81 454.067 508.336 452.777C507.862 451.488 507.049 450.429 506.026 449.771Z" fill="#EDA762"/>
<path d="M495.865 442.706V445.084H498.281C498.101 444.228 497.777 443.427 497.329 442.734C496.881 442.04 496.32 441.469 495.682 441.058C495.802 441.595 495.863 442.149 495.865 442.706Z" fill="#EDA762"/>
<path d="M503.623 449.038H498.451V446.663C498.451 444.984 497.906 443.373 496.936 442.186C495.966 440.998 494.65 440.331 493.279 440.331C491.907 440.331 490.591 440.998 489.621 442.186C488.651 443.373 488.106 444.984 488.106 446.663V449.038H482.934C481.562 449.038 480.247 449.705 479.277 450.893C478.307 452.08 477.762 453.691 477.762 455.37C477.762 457.049 478.307 458.66 479.277 459.848C480.247 461.035 481.562 461.702 482.934 461.702H503.623C504.995 461.702 506.311 461.035 507.281 459.848C508.25 458.66 508.795 457.049 508.795 455.37C508.795 453.691 508.25 452.08 507.281 450.893C506.311 449.705 504.995 449.038 503.623 449.038Z" stroke="#283035" stroke-width="2" stroke-linecap="round" stroke-linejoin="round"/>
<path d="M493.279 484.654C496.254 484.654 498.666 481.702 498.666 478.06C498.666 474.418 496.254 471.465 493.279 471.465C490.303 471.465 487.891 474.418 487.891 478.06C487.891 481.702 490.303 484.654 493.279 484.654Z" fill="#8EAFBF"/>
<path d="M493.279 484.654C496.254 484.654 498.666 481.702 498.666 478.06C498.666 474.418 496.254 471.465 493.279 471.465C490.303 471.465 487.891 474.418 487.891 478.06C487.891 481.702 490.303 484.654 493.279 484.654Z" stroke="#283035" stroke-width="2" stroke-linecap="round" stroke-linejoin="round"/>
<path d="M472.734 498.374H485.664" stroke="#283035" stroke-width="2" stroke-linecap="round" stroke-linejoin="round"/>
<path d="M472.734 519.877H485.664" stroke="#283035" stroke-width="2" stroke-linecap="round" stroke-linejoin="round"/>
<path d="M472.734 541.38H485.664" stroke="#283035" stroke-width="2" stroke-linecap="round" stroke-linejoin="round"/>
<path d="M494.208 497.531L497.579 503.018L507.667 493.736" stroke="#8BAFC1" stroke-width="2" stroke-linecap="round" stroke-linejoin="round"/>
<path d="M494.208 519.031L497.579 524.522L507.667 515.235" stroke="#8BAFC1" stroke-width="2" stroke-linecap="round" stroke-linejoin="round"/>
<path d="M530.715 499.057L524.312 500.148L530.015 550.319L536.418 549.228L530.715 499.057Z" fill="#3BBC88"/>
<path d="M530.715 499.057L524.312 500.148L530.015 550.319L536.418 549.228L530.715 499.057Z" stroke="#283035" stroke-width="2" stroke-linecap="round" stroke-linejoin="round"/>
<path d="M536.419 549.216L530.015 550.307L534.109 557.603L536.419 549.216Z" fill="#E5E5E5"/>
<path d="M536.419 549.216L530.015 550.307L534.109 557.603L536.419 549.216Z" stroke="#283035" stroke-width="2" stroke-linecap="round" stroke-linejoin="round"/>
<path d="M528.35 491.085L524.509 491.74L525.402 499.574L529.242 498.919L528.35 491.085Z" fill="#E5E5E5"/>
<path d="M528.35 491.085L524.509 491.74L525.402 499.574L529.242 498.919L528.35 491.085Z" stroke="#283035" stroke-width="2" stroke-linecap="round" stroke-linejoin="round"/>
<path d="M536.505 518.85C535.781 517.389 535.268 515.787 534.988 514.113C534.274 509.813 536.037 507.355 535.084 504.907C534.703 503.932 534.519 502.599 531.664 502.094" stroke="#283035" stroke-width="2" stroke-linecap="round" stroke-linejoin="round"/>
<path d="M544.361 557.905H561.009" stroke="#283035" stroke-width="2" stroke-linecap="round" stroke-linejoin="round"/>
<path d="M100.567 557.905H537.087" stroke="#283035" stroke-width="2" stroke-linecap="round" stroke-linejoin="round"/>
<path d="M23.2518 557.905H92.9912" stroke="#283035" stroke-width="2" stroke-linecap="round" stroke-linejoin="round"/>
<path d="M1 557.905H15.9783" stroke="#283035" stroke-width="2" stroke-linecap="round" stroke-linejoin="round"/>
<path d="M275.568 180.125C284.137 180.125 291.084 171.621 291.084 161.13C291.084 150.639 284.137 142.134 275.568 142.134C266.998 142.134 260.051 150.639 260.051 161.13C260.051 171.621 266.998 180.125 275.568 180.125Z" fill="white"/>
<path d="M231.024 165.418C230.235 165.414 229.455 165.206 228.736 164.807C228.018 164.408 227.376 163.827 226.855 163.102C226.333 162.377 225.943 161.525 225.71 160.602C225.477 159.679 225.407 158.705 225.504 157.747C228.52 126.398 249.784 102.1 275.568 102.1C301.351 102.1 322.615 126.398 325.631 157.747C325.728 158.706 325.658 159.679 325.425 160.602C325.192 161.525 324.802 162.378 324.28 163.103C323.758 163.828 323.116 164.409 322.398 164.808C321.679 165.207 320.899 165.415 320.109 165.418H231.024Z" fill="#F7B66F"/>
<path d="M283.326 102.847C283.159 102.815 282.99 102.792 282.823 102.762C282.235 102.656 281.644 102.56 281.05 102.479C280.78 102.442 280.509 102.412 280.237 102.38C279.745 102.323 279.252 102.272 278.758 102.237C278.471 102.216 278.185 102.19 277.898 102.174C277.125 102.129 276.346 102.1 275.57 102.1C274.794 102.1 274.018 102.128 273.25 102.174C272.895 102.194 272.543 102.228 272.19 102.257C271.809 102.29 271.427 102.323 271.048 102.367C270.582 102.418 270.119 102.48 269.658 102.548C269.432 102.581 269.205 102.618 268.983 102.656C245.692 106.473 227.393 130.227 225.334 159.839C225.282 160.546 225.352 161.259 225.538 161.932C225.724 162.606 226.022 163.224 226.413 163.749C226.805 164.273 227.281 164.693 227.812 164.98C228.343 165.267 228.917 165.416 229.497 165.418H321.64C322.216 165.42 322.786 165.276 323.314 164.995C323.841 164.715 324.316 164.303 324.708 163.787C325.1 163.271 325.4 162.661 325.589 161.995C325.779 161.33 325.854 160.624 325.81 159.922C323.813 130.767 306.08 107.259 283.326 102.847ZM242.61 147.949C244.809 138.166 248.913 129.181 254.57 121.765C260.227 114.349 267.269 108.723 275.092 105.368C282.921 108.716 289.97 114.34 295.634 121.756C301.298 129.173 305.407 138.161 307.609 147.949C307.888 149.214 307.925 150.541 307.717 151.827C307.509 153.112 307.062 154.322 306.41 155.361C305.758 156.4 304.919 157.241 303.958 157.819C302.997 158.396 301.94 158.694 300.869 158.69H249.35C248.279 158.695 247.222 158.397 246.261 157.819C245.3 157.242 244.46 156.401 243.808 155.362C243.156 154.322 242.709 153.113 242.501 151.827C242.293 150.541 242.33 149.214 242.61 147.949Z" fill="#EFAA65"/>
<path d="M231.067 165.418C230.272 165.415 229.487 165.206 228.763 164.804C228.039 164.402 227.393 163.817 226.867 163.087C226.342 162.357 225.949 161.499 225.714 160.569C225.48 159.639 225.409 158.659 225.507 157.694C228.544 126.367 249.798 102.1 275.568 102.1C301.337 102.1 322.591 126.367 325.626 157.694C325.724 158.659 325.653 159.639 325.418 160.569C325.184 161.499 324.791 162.357 324.265 163.087C323.74 163.817 323.094 164.403 322.37 164.804C321.646 165.206 320.86 165.415 320.065 165.418H231.067Z" stroke="#283035" stroke-width="2" stroke-linecap="round" stroke-linejoin="round"/>
<path d="M275.568 0V102.1" stroke="#283035" stroke-width="2" stroke-linejoin="round"/>
<defs>
<linearGradient id="paint0_linear_3_669" x1="275.568" y1="154.122" x2="275.568" y2="569.24" gradientUnits="userSpaceOnUse">
<stop stop-color="white"/>
<stop offset="0.093" stop-color="white" stop-opacity="0.864"/>
<stop offset="0.284" stop-color="white" stop-opacity="0.605"/>
<stop offset="0.466" stop-color="white" stop-opacity="0.389"/>
<stop offset="0.633" stop-color="white" stop-opacity="0.221"/>
<stop offset="0.784" stop-color="white" stop-opacity="0.1"/>
<stop offset="0.911" stop-color="white" stop-opacity="0.026"/>
<stop offset="1" stop-color="white" stop-opacity="0"/>
</linearGradient>
</defs>
</svg>
