<svg width="389" height="166" viewBox="0 0 389 166" fill="none" xmlns="http://www.w3.org/2000/svg">
<path d="M250 125H293L303.5 95H317" stroke="#00AADD" stroke-width="2"/>
<path d="M348.5 111.5H387" stroke="#FF5F5D" stroke-width="2"/>
<path d="M3 62H40.5" stroke="#00AADD" stroke-width="2"/>
<path d="M199 78H209L220 44L229 78H240L226 29H213L199 78Z" fill="#FF5F5D"/>
<path d="M240 89H230L219 123L210 89H199L213 138H226L240 89Z" fill="#00AADD"/>
<path d="M198.1 28.35V77H190.12V55.72H167.23V77H159.25V28.35H167.23V49.21H190.12V28.35H198.1Z" fill="white"/>
<path d="M117.23 89.35V138H109.25V89.35H117.23ZM135.687 89.35V138H127.707V89.35H135.687ZM154.144 89.35V138H146.164V89.35H154.144ZM196.051 89.35V95.86H183.101V138H175.121V95.86H162.101V89.35H196.051Z" fill="white"/>
<path d="M238.59 55.57C238.59 50.81 239.687 46.54 241.88 42.76C244.12 38.98 247.13 36.04 250.91 33.94C254.737 31.7933 258.913 30.72 263.44 30.72C268.62 30.72 273.217 32.0033 277.23 34.57C281.29 37.09 284.23 40.6833 286.05 45.35H276.46C275.2 42.7833 273.45 40.87 271.21 39.61C268.97 38.35 266.38 37.72 263.44 37.72C260.22 37.72 257.35 38.4433 254.83 39.89C252.31 41.3367 250.327 43.4133 248.88 46.12C247.48 48.8267 246.78 51.9767 246.78 55.57C246.78 59.1633 247.48 62.3133 248.88 65.02C250.327 67.7267 252.31 69.8267 254.83 71.32C257.35 72.7667 260.22 73.49 263.44 73.49C266.38 73.49 268.97 72.86 271.21 71.6C273.45 70.34 275.2 68.4267 276.46 65.86H286.05C284.23 70.5267 281.29 74.12 277.23 76.64C273.217 79.16 268.62 80.42 263.44 80.42C258.867 80.42 254.69 79.37 250.91 77.27C247.13 75.1233 244.12 72.16 241.88 68.38C239.687 64.6 238.59 60.33 238.59 55.57Z" fill="white"/>
<path d="M319.06 80L300.23 58.23V80H292.25V31.35H300.23V53.54L319.13 31.35H329.14L308 55.71L329.49 80H319.06Z" fill="white"/>
<circle cx="316.5" cy="95.5" r="2.5" fill="#00AADD"/>
<circle cx="386.5" cy="111.5" r="2.5" fill="#FF5F5D"/>
<path d="M72 75.5H87.5L97.5 46.5H139" stroke="#FF5F5D" stroke-width="2"/>
<path d="M8 56.5H38L50.5 80H77.5L87 57.5H103L107 42H122.5L129.5 61.5H148" stroke="white" stroke-width="2"/>
<circle cx="2.5" cy="61.5" r="2.5" fill="#00AADD"/>
<circle cx="8.5" cy="56.5" r="2.5" fill="white"/>
<circle cx="73.5" cy="75.5" r="2.5" fill="#FF5F5D"/>
<circle cx="137.5" cy="46.5" r="2.5" fill="#FF5F5D"/>
<circle cx="147.5" cy="61.5" r="2.5" fill="white"/>
<path d="M240.5 111.5H258.5L264.5 130H282.5L286.5 115.5H302.5L312 93H338L349.5 114H379" stroke="white" stroke-width="2"/>
<circle cx="241.5" cy="111.5" r="2.5" fill="white"/>
<circle cx="251.5" cy="124.5" r="2.5" fill="#00AADD"/>
</svg>
