<svg width="491" height="402" viewBox="0 0 491 402" fill="none" xmlns="http://www.w3.org/2000/svg">
<path d="M429.527 344.112H61.4732L127.542 298.479H364.469L429.527 344.112Z" fill="#FF5F5D"/>
<path d="M272.495 121.025H206.279V76.2422C206.279 73.2099 208.38 70.752 210.973 70.752H267.801C270.394 70.752 272.495 73.2099 272.495 76.2422V121.025Z" fill="white" stroke="#66B0F0" stroke-miterlimit="10"/>
<path d="M267.497 118.108H211.552C210.079 118.108 208.881 116.706 208.881 114.983V76.5982C208.881 74.8754 210.079 73.4741 211.552 73.4741H267.497C268.97 73.4741 270.168 74.8754 270.168 76.5982V114.995C270.168 116.718 268.97 118.108 267.497 118.108Z" fill="#66B0F0"/>
<path d="M284.102 131.534C286.636 133.464 286.047 137.243 283.052 137.243H192.845C190.321 137.243 189.457 133.257 191.932 131.431L284.102 131.534Z" fill="#66B0F0" stroke="#66B0F0" stroke-miterlimit="10"/>
<path d="M283.052 134.613H192.845C191.235 134.613 190.596 132.396 191.932 131.431L206.299 121.025H272.309L284.093 131.534C285.271 132.58 284.584 134.613 283.052 134.613Z" fill="white" stroke="#66B0F0" stroke-miterlimit="10"/>
<path d="M272.643 131.477H203.254C202.017 131.477 201.526 129.766 202.547 129.031L212.524 121.025H264.374L273.438 129.111C274.351 129.915 273.821 131.477 272.643 131.477Z" fill="white" stroke="#66B0F0" stroke-miterlimit="10"/>
<path d="M259.887 121.025L268.96 131.477" stroke="#66B0F0" stroke-miterlimit="10"/>
<path d="M255.075 121.025L263.068 131.477" stroke="#66B0F0" stroke-miterlimit="10"/>
<path d="M250.577 121.025L257.51 131.477" stroke="#66B0F0" stroke-miterlimit="10"/>
<path d="M245.549 121.025L251.411 131.477" stroke="#66B0F0" stroke-miterlimit="10"/>
<path d="M241.376 121.025L244.233 131.477" stroke="#66B0F0" stroke-miterlimit="10"/>
<path d="M216.737 121.025L207.664 131.477" stroke="#66B0F0" stroke-miterlimit="10"/>
<path d="M221.549 121.025L213.556 131.477" stroke="#66B0F0" stroke-miterlimit="10"/>
<path d="M226.047 121.025L219.114 131.477" stroke="#66B0F0" stroke-miterlimit="10"/>
<path d="M231.074 121.025L225.212 131.477" stroke="#66B0F0" stroke-miterlimit="10"/>
<path d="M235.248 121.025L232.39 131.477" stroke="#66B0F0" stroke-miterlimit="10"/>
<path d="M238.076 131.603V121.025" stroke="#66B0F0" stroke-miterlimit="10"/>
<path d="M207.664 124.93H268.764" stroke="#66B0F0" stroke-miterlimit="10"/>
<path d="M262.842 118.108H213.163L214.056 110.699C214.606 106.139 217.405 102.395 221.186 101.132L233.294 98.1914H242.711L254.819 101.132C258.61 102.384 261.408 106.139 261.948 110.699L262.842 118.108Z" fill="#FFCF2D"/>
<path d="M241.356 106.656L237.772 102.418C237.693 102.326 237.693 102.177 237.772 102.097C237.85 102.005 237.978 102.005 238.047 102.097L241.336 105.99L246.443 99.2251C246.511 99.1332 246.639 99.1217 246.718 99.2021C246.796 99.2825 246.806 99.4318 246.737 99.5237L241.356 106.656Z" fill="white"/>
<path d="M234.698 106.656L229.317 99.5237C229.248 99.4318 229.248 99.2825 229.336 99.2021C229.415 99.1217 229.542 99.1217 229.611 99.2251L234.718 105.99L238.007 102.097C238.086 102.005 238.204 102.005 238.282 102.097C238.361 102.188 238.361 102.326 238.282 102.418L234.698 106.656Z" fill="white"/>
<path d="M238.086 109.424C237.615 109.424 237.232 108.976 237.232 108.425C237.232 107.874 237.615 107.426 238.086 107.426C238.557 107.426 238.94 107.874 238.94 108.425C238.94 108.976 238.557 109.424 238.086 109.424ZM238.086 107.885C237.831 107.885 237.624 108.126 237.624 108.425C237.624 108.724 237.831 108.965 238.086 108.965C238.341 108.965 238.547 108.724 238.547 108.425C238.547 108.126 238.341 107.885 238.086 107.885Z" fill="white"/>
<path d="M238.086 115.052C237.615 115.052 237.232 114.604 237.232 114.053C237.232 113.502 237.615 113.054 238.086 113.054C238.557 113.054 238.94 113.502 238.94 114.053C238.94 114.604 238.557 115.052 238.086 115.052ZM238.086 113.513C237.831 113.513 237.624 113.754 237.624 114.053C237.624 114.352 237.831 114.593 238.086 114.593C238.341 114.593 238.547 114.352 238.547 114.053C238.547 113.754 238.341 113.513 238.086 113.513Z" fill="white"/>
<path d="M233.235 117.866H217.189L212.907 103.004L228.953 97.6286L233.235 117.866Z" fill="white" stroke="#66B0F0" stroke-miterlimit="10"/>
<path d="M218.024 104.933H217.719C216.943 104.933 216.315 104.198 216.315 103.291V98.134C216.315 97.7664 216.57 97.4678 216.885 97.4678H218.21C218.525 97.4678 218.78 97.7664 218.78 98.134V104.038C218.79 104.531 218.446 104.933 218.024 104.933Z" fill="white"/>
<path d="M218.024 104.933H217.719C216.943 104.933 216.315 104.198 216.315 103.291V98.134C216.315 97.7664 216.57 97.4678 216.885 97.4678H218.21C218.525 97.4678 218.78 97.7664 218.78 98.134V104.038C218.79 104.531 218.446 104.933 218.024 104.933Z" stroke="#66B0F0" stroke-miterlimit="10" stroke-linecap="round"/>
<path d="M224.485 104.933H224.79C225.565 104.933 226.194 104.198 226.194 103.291V98.134C226.194 97.7664 225.939 97.4678 225.624 97.4678H224.289C223.975 97.4678 223.719 97.7664 223.719 98.134V104.038C223.719 104.531 224.063 104.933 224.485 104.933Z" fill="white"/>
<path d="M220.488 105.531H219.781C219.231 105.531 218.79 105.014 218.79 104.371V98.1454C218.79 97.7779 219.045 97.4793 219.359 97.4793H220.685C220.999 97.4793 221.254 97.7779 221.254 98.1454V104.635C221.254 105.129 220.911 105.531 220.488 105.531Z" fill="white"/>
<path d="M222.963 105.76H222.374C221.755 105.76 221.254 105.175 221.254 104.451V98.1339C221.254 97.7664 221.51 97.4678 221.824 97.4678H223.15C223.464 97.4678 223.719 97.7664 223.719 98.1339V104.865C223.719 105.358 223.376 105.76 222.963 105.76Z" fill="white"/>
<path d="M224.485 104.933H224.79C225.565 104.933 226.194 104.198 226.194 103.291V98.134C226.194 97.7664 225.939 97.4678 225.624 97.4678H224.289C223.975 97.4678 223.719 97.7664 223.719 98.134V104.038C223.719 104.531 224.063 104.933 224.485 104.933Z" stroke="#66B0F0" stroke-miterlimit="10" stroke-linecap="round"/>
<path d="M220.488 105.531H219.781C219.231 105.531 218.79 105.014 218.79 104.371V98.1454C218.79 97.7779 219.045 97.4793 219.359 97.4793H220.685C220.999 97.4793 221.254 97.7779 221.254 98.1454V104.635C221.254 105.129 220.911 105.531 220.488 105.531Z" stroke="#66B0F0" stroke-miterlimit="10" stroke-linecap="round"/>
<path d="M222.963 105.76H222.374C221.755 105.76 221.254 105.175 221.254 104.451V98.1339C221.254 97.7664 221.51 97.4678 221.824 97.4678H223.15C223.464 97.4678 223.719 97.7664 223.719 98.1339V104.865C223.719 105.358 223.376 105.76 222.963 105.76Z" stroke="#66B0F0" stroke-miterlimit="10" stroke-linecap="round"/>
<path d="M242.721 91.4378V99.8223C242.721 101.269 240.61 102.453 238.007 102.453C235.405 102.453 233.294 101.269 233.294 99.8223V91.4378H242.721Z" fill="white"/>
<path d="M242.721 91.4378C242.721 97.7664 239.255 99.6501 235.926 99.317C235.916 99.317 235.906 99.317 235.896 99.317C234.423 99.1562 233.304 97.686 233.304 95.9631V91.4493H242.721V91.4378Z" fill="#66B0F0"/>
<path d="M244.911 89.2785V89.7034C244.911 90.6453 244.263 91.4033 243.457 91.4033H242.711L242.721 91.5986C242.721 94.3092 240.845 96.503 238.528 96.503H237.497C235.179 96.503 233.304 94.3092 233.304 91.5986L233.313 91.4033H232.567C231.762 91.4033 231.114 90.6453 231.114 89.7034V89.2785C231.114 88.3366 231.762 87.5786 232.567 87.5786H233.52L233.628 85.4997C233.628 85.1781 233.667 84.8679 233.745 84.5808C236.554 85.3963 239.844 83.2829 240.727 82.6512C241.709 83.0877 242.407 84.1903 242.407 85.4882L242.515 87.5671H243.467C244.263 87.5786 244.911 88.3366 244.911 89.2785Z" fill="white"/>
<path d="M243.526 87.5786H242.505L242.397 85.4997C242.397 84.2018 241.7 83.0991 240.718 82.6627C239.834 83.2829 236.544 85.3963 233.736 84.5923C233.657 84.8794 233.618 85.1895 233.618 85.5111L233.51 87.5901H232.871C232.871 87.5901 231.565 80.1933 232.852 78.8379C233.804 77.8387 242.525 80.021 243.487 81.5715C244.027 82.4559 243.526 87.5786 243.526 87.5786Z" fill="#E57281"/>
<path d="M241.071 87.1306C241.042 87.1306 241.002 87.1191 240.973 87.0847C240.963 87.0732 240.325 86.4645 239.304 86.4645C239.225 86.4645 239.156 86.3841 239.156 86.2922C239.156 86.2003 239.225 86.1199 239.304 86.1199C240.433 86.1199 241.13 86.7861 241.159 86.8205C241.218 86.8779 241.228 86.9928 241.179 87.0617C241.159 87.1077 241.11 87.1306 241.071 87.1306Z" fill="#66B0F0"/>
<path d="M237.34 90.6912C237.32 90.6912 237.3 90.6912 237.29 90.6797C237.212 90.6452 237.173 90.5418 237.202 90.4614C237.477 89.6115 237.408 88.5434 237.025 87.6015C236.799 87.0272 236.475 86.6138 236.191 86.4989C235.562 86.2462 234.678 86.6023 234.669 86.6023C234.59 86.6367 234.511 86.5908 234.482 86.4989C234.452 86.407 234.492 86.3151 234.57 86.2807C234.61 86.2692 235.552 85.8902 236.279 86.1773C236.642 86.3266 237.016 86.7975 237.281 87.4637C237.693 88.4859 237.762 89.6575 237.467 90.5993C237.457 90.6452 237.399 90.6912 237.34 90.6912Z" fill="#66B0F0"/>
<path d="M239.274 92.5175C239.284 92.6093 239.215 92.6897 239.137 92.7012H239.127C239.048 92.7012 238.989 92.6323 238.98 92.5404C238.97 92.4256 238.95 92.3107 238.921 92.2073C238.498 92.4485 238.115 92.5289 237.801 92.5289C237.182 92.5289 236.809 92.2303 236.79 92.2073C236.721 92.1499 236.711 92.0465 236.75 91.9661C236.799 91.8857 236.888 91.8742 236.957 91.9202C236.976 91.9317 237.29 92.1844 237.801 92.1844C238.076 92.1844 238.41 92.1154 238.793 91.8972C238.734 91.7823 238.675 91.7134 238.675 91.7134C238.616 91.6445 238.626 91.5297 238.685 91.4722C238.744 91.4148 238.842 91.4148 238.891 91.4837C238.911 91.5182 239.245 91.9546 239.274 92.5175Z" fill="#66B0F0"/>
<path d="M239.804 89.235C239.94 89.2251 240.036 88.9605 240.019 88.644C240.002 88.3274 239.879 88.0788 239.743 88.0886C239.608 88.0985 239.512 88.3631 239.529 88.6797C239.546 88.9962 239.669 89.2449 239.804 89.235Z" fill="#66B0F0"/>
<path d="M235.795 89.189C235.92 89.1799 236.008 88.9365 235.992 88.6452C235.977 88.354 235.863 88.1253 235.739 88.1343C235.614 88.1434 235.526 88.3869 235.542 88.6781C235.557 88.9693 235.671 89.1981 235.795 89.189Z" fill="#66B0F0"/>
<path d="M233.048 89.8298C232.97 89.8298 232.901 89.7494 232.901 89.6575C232.901 89.1521 232.547 88.7501 232.125 88.7501C232.047 88.7501 231.978 88.6697 231.978 88.5778C231.978 88.4859 232.047 88.4055 232.125 88.4055C232.714 88.4055 233.196 88.9683 233.196 89.6575C233.196 89.7609 233.127 89.8298 233.048 89.8298Z" fill="#66B0F0"/>
<path d="M242.927 89.8298C242.849 89.8298 242.78 89.7494 242.78 89.6575C242.78 88.9683 243.261 88.4055 243.85 88.4055C243.929 88.4055 243.998 88.4859 243.998 88.5778C243.998 88.6697 243.929 88.7501 243.85 88.7501C243.418 88.7501 243.074 89.1636 243.074 89.6575C243.074 89.7609 243.016 89.8298 242.927 89.8298Z" fill="#66B0F0"/>
<path d="M420.689 344.112L378.63 181.451C377.795 178.212 375.232 175.996 372.335 175.996H117.064C114.138 175.996 111.565 178.258 110.75 181.555L70.6157 344.112" stroke="#66B0F0" stroke-miterlimit="10"/>
<path d="M186.992 121.025H298.646" stroke="#66B0F0" stroke-miterlimit="10"/>
<path d="M225.742 145.742H252.118V172.24H225.742C225.742 172.24 225.742 144.743 225.742 145.742Z" fill="#FFCF2D"/>
<path d="M324.374 268.858L312.109 233.137H331.857L324.374 268.858Z" fill="#9A3B82"/>
<path d="M290.721 185.46C293.353 179.637 298.528 175.996 304.155 175.996H319.346L329.667 185.46H290.721Z" fill="#9A3B82"/>
<path d="M348.315 227.279H310.047L324.453 268.18C323.451 266.273 317.451 268.26 311.098 272.82C304.823 277.323 300.58 282.744 301.445 284.719L270.394 221.525C262.341 205.583 272.161 185.46 287.991 185.46H373.749L373.936 186.149C379.533 206.479 366.571 227.279 348.315 227.279Z" fill="#00AADD"/>
<path d="M375.232 197.187C375.095 200.92 374.388 204.526 373.189 207.868L328.214 185.471H372.856L373.896 189.032C374.623 191.168 375.026 194.166 375.232 197.187Z" fill="#E6E6E6"/>
<path d="M324.463 268.18C325.464 270.087 321.085 275.29 314.741 279.849C308.387 284.409 302.485 286.695 301.484 284.788C300.482 282.882 304.754 277.495 311.107 272.935C317.451 268.375 323.451 266.273 324.463 268.18Z" fill="#66B0F0"/>
<path d="M310.371 272.958L282.443 215.208C280.253 210.637 283.071 204.986 287.559 204.986H341.952C349.278 204.986 354.748 197.095 353.235 188.71" stroke="white" stroke-miterlimit="10" stroke-linecap="round"/>
<path d="M301.16 284.915C300.158 283.008 304.489 276.943 311.108 272.43C318.541 267.364 323.353 265.86 324.787 268.547" stroke="white" stroke-miterlimit="10" stroke-linecap="round"/>
<path d="M325.003 268.8L306.757 217.919" stroke="white" stroke-miterlimit="10" stroke-linecap="round"/>
<path d="M286.921 185.081H331.435" stroke="white" stroke-miterlimit="10"/>
<path d="M312.099 287.419L309.448 283.192L305.795 277.38C307.287 275.91 309.084 274.382 311.098 272.935C315.104 270.064 318.963 268.157 321.526 267.629L323.304 271.775L325.523 276.944C323.952 283.479 312.099 287.419 312.099 287.419Z" fill="#E57281"/>
<path d="M323.314 271.775C321.664 274.13 318.561 277.104 314.741 279.849C312.905 281.17 311.108 282.296 309.458 283.192L305.805 277.38C307.298 275.91 309.095 274.382 311.108 272.935C315.114 270.064 318.974 268.157 321.537 267.629L323.314 271.775Z" fill="#9A3B82"/>
<path d="M337.661 299.72L310.715 322.358C308.427 324.219 304.872 325.769 305.343 319.039C306.001 309.758 307.759 295.952 312.099 287.407C312.286 287.35 323.952 283.41 325.523 276.932L337.808 287.143C341.343 290.359 341.265 296.63 337.661 299.72Z" fill="white" stroke="#FFCF2D" stroke-miterlimit="10"/>
<path d="M310.852 290.405C312.993 290.876 325.013 285.891 326.878 278.207" stroke="#FFCF2D" stroke-miterlimit="10" stroke-linecap="round"/>
<path d="M307.955 320.026C307.955 320.026 325.543 291.45 338.053 293.058C351.674 294.792 296.819 336.692 307.955 320.026Z" fill="#FFCF2D"/>
<path d="M307.454 323.92C306.089 324.024 304.646 322.163 306.639 319.177C306.639 319.177 324.944 289.543 337.975 291.22C339.988 291.473 340.666 293.391 340.194 295.045" stroke="#FFCF2D" stroke-miterlimit="10" stroke-linecap="round"/>
<path d="M375.33 199.518C369.104 197.795 353.608 193.259 335.932 188.481C327.625 186.241 320.672 179.625 317.088 170.574L300.993 129.846L310.734 111.79C313.729 106.231 318.836 102.694 324.443 102.292L334.027 101.603C343.69 100.913 351.448 107.966 354.394 118.751L373.887 185.46C376.028 191.708 375.33 199.518 375.33 199.518Z" fill="white" stroke="#FF5F5D" stroke-miterlimit="10"/>
<path d="M309.467 132.132C309.467 132.132 314.594 141.55 326.27 143.629" stroke="#FF5F5D" stroke-miterlimit="10"/>
<path d="M316.381 114.995C315.85 114.329 314.918 114.513 314.594 115.328C314.23 116.247 314.888 117.269 315.742 117.12C316.616 116.971 316.98 115.742 316.381 114.995Z" fill="#FFCF2D" stroke="#FF5F5D" stroke-miterlimit="10" stroke-linejoin="round"/>
<path d="M340.842 134.624C340.312 133.958 339.379 134.142 339.055 134.957C338.692 135.876 339.35 136.898 340.204 136.749C341.078 136.6 341.442 135.371 340.842 134.624Z" fill="#FFCF2D" stroke="#FF5F5D" stroke-miterlimit="10" stroke-linejoin="round"/>
<path d="M348.59 142.664C348.06 141.998 347.127 142.182 346.803 142.997C346.44 143.916 347.098 144.938 347.952 144.789C348.816 144.651 349.18 143.422 348.59 142.664Z" fill="#FFCF2D" stroke="#FF5F5D" stroke-miterlimit="10" stroke-linejoin="round"/>
<path d="M363.448 188.159C362.918 187.493 361.985 187.677 361.661 188.492C361.297 189.411 361.955 190.433 362.81 190.284C363.674 190.135 364.037 188.917 363.448 188.159Z" fill="#FFCF2D" stroke="#FF5F5D" stroke-miterlimit="10" stroke-linejoin="round"/>
<path d="M355.131 166.417C354.6 165.75 353.667 165.934 353.343 166.75C352.98 167.668 353.638 168.691 354.492 168.541C355.366 168.392 355.73 167.163 355.131 166.417Z" fill="#FFCF2D" stroke="#FF5F5D" stroke-miterlimit="10" stroke-linejoin="round"/>
<path d="M358.577 150.773C357.811 150.888 357.389 151.887 357.772 152.668C358.204 153.552 359.294 153.518 359.687 152.611C360.09 151.692 359.441 150.635 358.577 150.773Z" fill="#FFCF2D" stroke="#FF5F5D" stroke-miterlimit="10" stroke-linejoin="round"/>
<path d="M364.853 173.974C364.087 174.089 363.664 175.088 364.047 175.869C364.479 176.754 365.569 176.719 365.962 175.812C366.365 174.893 365.726 173.836 364.853 173.974Z" fill="#FFCF2D" stroke="#FF5F5D" stroke-miterlimit="10" stroke-linejoin="round"/>
<path d="M338.829 148.947C338.299 148.281 337.366 148.464 337.042 149.28C336.678 150.199 337.336 151.221 338.191 151.072C339.055 150.922 339.418 149.705 338.829 148.947Z" fill="#FFCF2D" stroke="#FF5F5D" stroke-miterlimit="10" stroke-linejoin="round"/>
<path d="M333.419 161.96C332.888 161.294 331.955 161.478 331.631 162.293C331.268 163.212 331.926 164.234 332.78 164.085C333.654 163.936 334.018 162.707 333.419 161.96Z" fill="#FFCF2D" stroke="#FF5F5D" stroke-miterlimit="10" stroke-linejoin="round"/>
<path d="M323.736 157.412C324.306 156.791 324.149 155.7 323.451 155.321C322.666 154.896 321.792 155.666 321.919 156.665C322.047 157.676 323.088 158.101 323.736 157.412Z" fill="#FFCF2D" stroke="#FF5F5D" stroke-miterlimit="10" stroke-linejoin="round"/>
<path d="M332.329 179.809C332.898 179.189 332.741 178.097 332.044 177.718C331.258 177.294 330.384 178.063 330.512 179.062C330.639 180.085 331.69 180.509 332.329 179.809Z" fill="#FFCF2D" stroke="#FF5F5D" stroke-miterlimit="10" stroke-linejoin="round"/>
<path d="M346.793 160.593C347.363 159.973 347.206 158.882 346.509 158.503C345.723 158.078 344.849 158.847 344.977 159.847C345.104 160.857 346.155 161.294 346.793 160.593Z" fill="#FFCF2D" stroke="#FF5F5D" stroke-miterlimit="10" stroke-linejoin="round"/>
<path d="M351.733 184.644C352.302 184.024 352.145 182.933 351.448 182.554C350.662 182.129 349.788 182.899 349.916 183.898C350.034 184.92 351.085 185.345 351.733 184.644Z" fill="#FFCF2D" stroke="#FF5F5D" stroke-miterlimit="10" stroke-linejoin="round"/>
<path d="M322.116 135.933C321.585 135.267 320.653 135.451 320.328 136.267C319.965 137.185 320.623 138.208 321.477 138.058C322.351 137.909 322.715 136.68 322.116 135.933Z" fill="#FFCF2D" stroke="#FF5F5D" stroke-miterlimit="10" stroke-linejoin="round"/>
<path d="M323.874 106.14C323.343 105.473 322.41 105.657 322.086 106.473C321.723 107.391 322.381 108.414 323.235 108.264C324.109 108.115 324.473 106.886 323.874 106.14Z" fill="#FFCF2D" stroke="#FF5F5D" stroke-miterlimit="10" stroke-linejoin="round"/>
<path d="M340.842 106.14C340.312 105.473 339.379 105.657 339.055 106.473C338.692 107.391 339.35 108.414 340.204 108.264C341.078 108.115 341.442 106.886 340.842 106.14Z" fill="#FFCF2D" stroke="#FF5F5D" stroke-miterlimit="10" stroke-linejoin="round"/>
<path d="M340.872 119.003C340.155 119.337 339.949 120.416 340.489 121.071C341.088 121.795 342.139 121.461 342.335 120.474C342.532 119.474 341.687 118.624 340.872 119.003Z" fill="#FFCF2D" stroke="#FF5F5D" stroke-miterlimit="10" stroke-linejoin="round"/>
<path d="M331.229 111.676C330.482 111.928 330.198 112.973 330.669 113.686C331.209 114.478 332.279 114.26 332.554 113.307C332.839 112.33 332.063 111.388 331.229 111.676Z" fill="#FFCF2D" stroke="#FF5F5D" stroke-miterlimit="10" stroke-linejoin="round"/>
<path d="M329.805 143.491C329.039 143.594 328.607 144.582 328.98 145.375C329.402 146.259 330.492 146.248 330.895 145.352C331.307 144.444 330.679 143.376 329.805 143.491Z" fill="#FFCF2D" stroke="#FF5F5D" stroke-miterlimit="10" stroke-linejoin="round"/>
<path d="M321.389 167.416C320.623 167.519 320.191 168.507 320.564 169.299C320.986 170.184 322.076 170.172 322.479 169.277C322.891 168.369 322.263 167.301 321.389 167.416Z" fill="#FFCF2D" stroke="#FF5F5D" stroke-miterlimit="10" stroke-linejoin="round"/>
<path d="M324.217 121.163C323.471 121.415 323.186 122.461 323.657 123.173C324.197 123.965 325.268 123.747 325.543 122.794C325.828 121.829 325.062 120.887 324.217 121.163Z" fill="#FFCF2D" stroke="#FF5F5D" stroke-miterlimit="10" stroke-linejoin="round"/>
<path d="M332.348 127.595C331.602 127.847 331.317 128.893 331.788 129.605C332.328 130.397 333.399 130.179 333.674 129.226C333.958 128.249 333.192 127.308 332.348 127.595Z" fill="#FFCF2D" stroke="#FF5F5D" stroke-miterlimit="10" stroke-linejoin="round"/>
<path d="M314.741 127.319C315.232 126.618 314.967 125.562 314.22 125.298C313.395 124.999 312.61 125.895 312.855 126.86C313.101 127.847 314.181 128.112 314.741 127.319Z" fill="#FFCF2D" stroke="#FF5F5D" stroke-miterlimit="10" stroke-linejoin="round"/>
<path d="M351.969 127.354C352.46 126.653 352.194 125.596 351.448 125.332C350.623 125.033 349.838 125.929 350.083 126.894C350.319 127.882 351.409 128.146 351.969 127.354Z" fill="#FFCF2D" stroke="#FF5F5D" stroke-miterlimit="10" stroke-linejoin="round"/>
<path d="M342.521 173.917C343.012 173.216 342.747 172.159 342.001 171.895C341.176 171.597 340.391 172.492 340.636 173.457C340.872 174.434 341.962 174.698 342.521 173.917Z" fill="#FFCF2D" stroke="#FF5F5D" stroke-miterlimit="10" stroke-linejoin="round"/>
<path d="M334.685 101.224C334.469 101.235 334.253 101.247 334.027 101.258L324.443 101.947C321.998 102.12 319.661 102.889 317.54 104.164L314.594 93.85L327.723 82.594L334.685 101.224Z" fill="#E57281"/>
<path d="M317.5 104.003C320.23 102.556 322.41 99.9832 323.648 96.7901L328.42 84.443L327.723 82.5823L314.594 93.8383L317.5 104.003Z" fill="#9A3B82"/>
<path d="M328.567 83.6275C328.567 84.6957 328.194 85.6605 327.595 86.3611C326.996 87.0617 326.171 87.4982 325.258 87.4982H322.371C321.232 92.6782 316.823 96.2273 312.08 95.251L309.909 94.8031C307.533 94.3092 305.913 91.7134 306.247 88.9224L308.79 74.0254C309.232 70.8439 312.031 68.9028 314.633 69.994L318.846 71.9695C321.124 72.8884 322.656 75.3922 322.656 78.2062V79.642L325.258 79.7568C327.085 79.7568 328.567 81.4911 328.567 83.6275Z" fill="#E57281"/>
<path d="M323.677 84.3741C323.677 82.8924 324.698 81.6979 325.965 81.6979" stroke="#9A3B82" stroke-miterlimit="10" stroke-linecap="round"/>
<path d="M310.204 77.161C310.204 77.161 312.266 77.161 313.739 79.4697" stroke="#9A3B82" stroke-miterlimit="10" stroke-linecap="round"/>
<path d="M311.575 81.4598C311.678 80.792 311.546 80.2047 311.279 80.148C311.012 80.0913 310.712 80.5866 310.608 81.2545C310.504 81.9223 310.637 82.5096 310.903 82.5663C311.17 82.623 311.471 82.1276 311.575 81.4598Z" fill="#9A3B82"/>
<path d="M325.258 79.7568C327.085 79.7568 328.567 81.4911 328.567 83.6275C328.567 83.639 328.567 83.6619 328.567 83.6849C330.04 81.0317 333.654 74.2781 333.654 71.9925C333.654 68.9258 330.384 65.8591 326.996 67.2603C327.222 67.0651 327.458 66.8584 327.703 66.6401C329.009 65.4456 329.697 64.5497 329.805 63.9065C329.844 63.6768 329.815 63.4701 329.716 63.3093C329.324 62.6546 328.891 62.3674 328.43 62.4593C327.752 62.5857 327.055 63.562 326.358 65.3537C326.044 66.1692 325.798 66.9732 325.661 67.4671C325.386 65.549 324.06 59.1974 318.364 60.1737C316.4 60.5068 315.477 61.4601 315.222 62.5053C313.592 61.0121 311.412 59.8406 309.605 60.9547C306.482 62.8728 306.865 66.0199 308.672 68.2481C306.963 68.2137 305.765 68.7994 305.765 70.4878C305.765 72.0384 307.13 72.785 309.006 73.0836C310.882 73.3822 313.287 73.2214 315.369 72.9458C316.852 72.7505 318.188 72.5093 319.042 72.337C318.472 73.7038 318.247 74.8754 318.296 75.8632C318.384 77.9076 319.651 79.1136 321.438 79.5386C321.821 79.6305 322.233 79.6879 322.656 79.7109L325.258 79.7568ZM328.489 62.9188C328.518 62.9073 328.548 62.9073 328.587 62.9073C328.862 62.9073 329.127 63.137 329.392 63.5734C329.412 63.6194 329.441 63.6883 329.422 63.8146C329.265 64.745 327.252 66.5138 326.083 67.4441C326.544 65.8591 327.517 63.114 328.489 62.9188Z" fill="#FFCF2D"/>
<path d="M317.422 66.3186C316.744 66.3186 316.057 65.8936 315.556 65.147C314.996 64.32 314.81 63.2978 315.045 62.4134C315.075 62.2985 315.173 62.2296 315.271 62.2526C315.31 62.2526 315.35 62.2641 315.379 62.2985C316.862 63.539 318.05 65.3078 317.873 66.0084C317.834 66.1922 317.707 66.3071 317.54 66.3186C317.5 66.3186 317.461 66.3186 317.422 66.3186ZM315.359 62.8498C315.271 63.516 315.448 64.2511 315.86 64.8599C316.302 65.5145 316.911 65.8936 317.5 65.8476C317.52 65.549 316.862 64.1822 315.359 62.8498Z" fill="white"/>
<path d="M298.037 167.737H235.189C233.637 167.737 232.705 165.739 233.529 164.211L241.896 148.843C242.986 146.845 244.862 145.639 246.885 145.639H289.425L298.037 167.737Z" fill="#E57281"/>
<path d="M248.269 145.65L253.277 136.002C253.572 135.428 254.112 135.072 254.682 135.072C255.968 135.072 256.754 136.714 256.086 138.001L252.109 145.65H248.269Z" fill="#FF5F5D"/>
<path d="M298.037 167.737H283.906C283.876 167.703 283.837 167.657 283.808 167.623C280.371 163.488 278.907 157.216 280.842 151.175L282.855 145.639H289.425L298.037 167.737Z" fill="#9A3B82"/>
<path d="M244.066 157.423H236.191C235.66 157.423 235.169 157.756 234.904 158.296L234.07 159.996C233.51 161.145 234.217 162.58 235.356 162.58H241.69C242.79 162.58 243.811 161.914 244.39 160.811L245.068 159.514C245.539 158.595 244.98 157.423 244.066 157.423Z" fill="#E57281"/>
<path d="M242.034 162.58H234.158C233.628 162.58 233.137 162.913 232.871 163.453L232.037 165.153C231.477 166.302 232.184 167.737 233.323 167.737H239.657C240.757 167.737 241.778 167.071 242.358 165.969L243.035 164.671C243.516 163.752 242.947 162.58 242.034 162.58Z" fill="#E57281"/>
<path d="M246.315 152.197H238.439C237.909 152.197 237.418 152.53 237.153 153.07L236.318 154.77C235.759 155.919 236.466 157.354 237.605 157.354H243.939C245.039 157.354 246.06 156.688 246.639 155.585L247.317 154.288C247.798 153.369 247.229 152.197 246.315 152.197Z" fill="#E57281"/>
<path d="M244.066 157.423H236.191C235.66 157.423 235.169 157.756 234.904 158.296L234.07 159.996C233.51 161.145 234.217 162.58 235.356 162.58H241.69C242.79 162.58 243.811 161.914 244.39 160.811L245.068 159.514C245.539 158.595 244.98 157.423 244.066 157.423Z" stroke="#9A3B82" stroke-miterlimit="10" stroke-linecap="round"/>
<path d="M242.034 162.58H234.158C233.628 162.58 233.137 162.913 232.871 163.453L232.037 165.153C231.477 166.302 232.184 167.737 233.323 167.737H239.657C240.757 167.737 241.778 167.071 242.358 165.969L243.035 164.671C243.516 163.752 242.947 162.58 242.034 162.58Z" stroke="#9A3B82" stroke-miterlimit="10" stroke-linecap="round"/>
<path d="M246.315 152.197H238.439C237.909 152.197 237.418 152.53 237.153 153.07L236.318 154.77C235.759 155.919 236.466 157.354 237.605 157.354H243.939C245.039 157.354 246.06 156.688 246.639 155.585L247.317 154.288C247.798 153.369 247.229 152.197 246.315 152.197Z" stroke="#9A3B82" stroke-miterlimit="10" stroke-linecap="round"/>
<path d="M257.716 159.881C255.349 159.881 253.071 158.882 251.284 157.056L248.299 154H245.549L244.842 154.885C243.575 156.47 242.014 157.377 240.158 157.377H238.842C238.155 157.377 237.732 156.481 238.106 155.804L241.415 149.739H257.726V159.881H257.716Z" fill="#E57281"/>
<path d="M241.415 149.739L238.106 155.804C237.732 156.481 238.155 157.377 238.842 157.377H240.158C242.014 157.377 243.575 156.481 244.842 154.885L245.549 154H248.299L251.284 157.056C253.061 158.87 255.349 159.881 257.716 159.881" stroke="#9A3B82" stroke-miterlimit="10" stroke-linecap="round"/>
<path d="M324.021 146.259L309.026 165.854C305.873 169.977 301.366 172.332 296.633 172.332C287.284 172.332 280.813 161.42 284.093 151.175L301.906 102.223L295.886 98.2833C295.032 97.5022 294.62 96.2273 294.806 94.9869L295.828 86.9354C296.142 85.1436 297.703 83.7424 299.225 83.3289L306.276 81.4682C306.875 81.3074 307.425 81.9046 307.327 82.6053L306.305 88.819C305.903 91.8513 307.651 94.47 310.243 94.9869C312.364 95.4118 313.857 97.9042 313.661 100.408L308.859 135.44C308.849 135.463 313.769 144.433 324.021 146.259Z" fill="#E57281"/>
<path d="M312.522 108.735L306.728 152.737" stroke="#9A3B82" stroke-miterlimit="10" stroke-linecap="round"/>
<path d="M300.512 87.5211L300.433 90.3696C300.404 91.5412 301.003 92.5749 301.867 92.862L310.891 94.9984" stroke="#9A3B82" stroke-miterlimit="10" stroke-linecap="round"/>
<path d="M317.029 95.9172L309.811 94.7916C307.435 94.2977 305.814 91.7019 306.148 88.9109L307.081 82.6742C307.17 82.0884 306.718 81.5945 306.227 81.7324L298.862 83.7424" stroke="#9A3B82" stroke-miterlimit="10" stroke-linecap="round"/>
<path d="M313.042 160.57L332.564 135.164" stroke="#FF5F5D" stroke-miterlimit="10"/>
<path d="M302.112 102.234H305.559" stroke="#9A3B82" stroke-miterlimit="10" stroke-linecap="round"/>
<path d="M300.521 88.2792V89.198C300.521 90.2892 301.199 91.1851 302.034 91.1851H303.114C303.585 91.1851 303.959 90.6912 303.959 90.071L304.027 84.0754C304.037 83.1451 303.193 82.5708 302.505 82.7661" stroke="#9A3B82" stroke-miterlimit="10" stroke-linecap="round"/>
<path d="M304.027 88.2792V89.1981C304.027 90.2892 304.705 91.1851 305.539 91.1851H306.227" stroke="#9A3B82" stroke-miterlimit="10" stroke-linecap="round"/>
<path d="M369.242 233.137L380.643 344.112" stroke="#66B0F0" stroke-miterlimit="10"/>
<path d="M319.828 233.137L308.427 344.112" stroke="#66B0F0" stroke-miterlimit="10"/>
<path d="M312.335 306.002H376.725" stroke="#66B0F0" stroke-miterlimit="10"/>
<path d="M313.258 233.482H375.222C376.047 233.482 376.715 232.701 376.715 231.736V229.37C376.715 228.405 376.047 227.624 375.222 227.624H313.258C312.433 227.624 311.765 228.405 311.765 229.37V231.736C311.765 232.701 312.433 233.482 313.258 233.482Z" fill="white" stroke="#FFCF2D" stroke-miterlimit="10"/>
<path d="M210.148 149.498L200.662 172.332H171.997L183.516 149.498H210.148Z" fill="white" stroke="#00AADD" stroke-miterlimit="10"/>
<path d="M203.863 155.069C203.863 155.069 202.616 152.576 199.621 153.219C197.382 153.69 194.731 155.85 193.101 154.69C191.47 153.53 190.027 152.082 187.916 152.771C185.804 153.461 184.243 154.781 184.243 154.781" stroke="#00AADD" stroke-miterlimit="10"/>
<path d="M202.881 158.629C202.881 158.629 201.634 156.137 198.639 156.78C196.4 157.251 193.749 159.41 192.118 158.25C190.488 157.09 189.045 155.643 186.934 156.332C184.822 157.021 183.261 158.342 183.261 158.342" stroke="#00AADD" stroke-miterlimit="10"/>
<path d="M220.93 251.974C220.93 255.04 213.654 257.521 204.541 257.521C195.428 257.521 188.367 255.04 188.367 251.974C188.367 248.907 195.428 246.426 204.541 246.426C213.654 246.426 220.93 248.918 220.93 251.974Z" fill="#FF5F5D"/>
<path d="M216.737 248.241V287.866L215.706 282.147C214.596 275.99 209.952 271.591 204.57 271.591C202.95 271.591 201.359 271.993 199.916 272.751C199.866 272.774 199.817 272.809 199.758 272.832L195.978 256.706L193.876 247.735C196.753 246.92 200.475 246.426 204.541 246.426C209.372 246.426 213.722 247.127 216.737 248.241Z" fill="#A0505A"/>
<path d="M216.737 248.241V255.707C213.722 256.821 209.372 257.521 204.541 257.521C201.408 257.521 198.482 257.223 195.978 256.717L193.876 247.747C196.753 246.932 200.475 246.438 204.541 246.438C209.372 246.426 213.722 247.127 216.737 248.241Z" fill="#73325A"/>
<path d="M216.01 286.706C216.276 286.798 218.77 287.614 220.979 287.614C222.177 287.614 223.287 287.373 223.916 286.638C224.456 286.006 224.583 285.087 224.299 283.927C224.043 282.893 223.552 282.25 222.835 282.02C221.52 281.607 219.693 282.755 218.249 283.961C220.498 280.768 222.718 276.714 221.893 274.061C221.598 273.119 220.93 272.487 220.096 272.372C219.398 272.28 218.75 272.568 218.446 273.107C217.032 275.623 215.873 285.948 215.824 286.385L216.01 286.706ZM218.858 273.429C219.035 273.119 219.408 272.935 219.84 272.935C219.909 272.935 219.978 272.935 220.047 272.947C220.361 272.992 221.117 273.199 221.441 274.256C221.657 274.957 221.736 276.243 220.862 278.402C220.037 280.447 218.544 282.847 216.423 285.569C216.737 282.951 217.739 275.416 218.858 273.429ZM223.572 286.236C222.924 286.994 221.451 287.223 219.3 286.902C218.171 286.729 217.12 286.454 216.56 286.281C216.983 285.845 217.768 285.052 218.682 284.317C220.43 282.905 221.824 282.296 222.718 282.583C223.258 282.755 223.621 283.249 223.837 284.088C224.073 285.052 223.984 285.753 223.572 286.236Z" fill="#FFCF2D"/>
<path d="M196.076 276.048L193.807 279.022C191.235 282.399 190.812 287.315 192.767 291.22L202.754 311.251C204.708 315.168 208.292 317.569 212.161 317.569H216.295C219.29 317.569 221.52 314.353 220.901 310.93L215.696 282.158C214.587 276.002 209.942 271.603 204.56 271.603C201.33 271.591 198.236 273.211 196.076 276.048Z" fill="white" stroke="#00AADD" stroke-miterlimit="10"/>
<path d="M203.804 284.708L216.698 313.928C217.307 315.248 218.063 316.098 218.927 316.638C218.181 317.224 217.277 317.58 216.295 317.58H212.161C208.282 317.58 204.698 315.168 202.753 311.263L192.767 291.22C192.364 290.405 192.06 289.555 191.853 288.671C190.439 282.526 196.42 277.702 200.907 281.308C201.929 282.124 202.93 283.226 203.804 284.708Z" fill="#00AADD"/>
<path d="M203.834 284.777H191.932C191.991 284.559 192.06 284.352 192.138 284.157H203.451C203.569 284.34 203.686 284.524 203.804 284.719L203.834 284.777Z" fill="white"/>
<path d="M205.582 288.728H191.873C191.873 288.705 191.863 288.682 191.863 288.67C191.824 288.487 191.784 288.291 191.755 288.108H205.317L205.582 288.728Z" fill="white"/>
<path d="M207.33 292.69H193.503L193.189 292.059H207.055L207.33 292.69Z" fill="white"/>
<path d="M209.078 296.653H195.477L195.163 296.021H208.803L209.078 296.653Z" fill="white"/>
<path d="M210.826 300.604H197.451L197.137 299.984H210.551L210.826 300.604Z" fill="white"/>
<path d="M212.574 304.567H199.425L199.11 303.935H212.289L212.574 304.567Z" fill="white"/>
<path d="M214.321 308.529H201.398L201.084 307.898H214.037L214.321 308.529Z" fill="white"/>
<path d="M216.06 312.48H203.451C203.323 312.274 203.195 312.067 203.078 311.86H215.785L216.06 312.48Z" fill="white"/>
<path d="M218.642 316.443H207.683C207.33 316.259 206.986 316.052 206.652 315.823H217.935C218.161 316.052 218.397 316.259 218.642 316.443Z" fill="white"/>
<path d="M180.708 251.158C180.619 254.19 173.264 256.648 164.21 256.648C155.156 256.648 147.801 254.202 147.712 251.158V227.279H180.708V251.158Z" fill="#73325A"/>
<path d="M178.518 255.121L178.469 257.958L177.997 285.65V284.846C177.997 277.736 173.068 271.97 166.989 271.97H166.321C163.218 271.97 160.419 273.383 158.347 275.657L156.904 264.24L156.01 257.177C158.426 257.648 161.225 257.912 164.2 257.912C170.328 257.9 175.66 256.775 178.518 255.121Z" fill="#A0505A"/>
<path d="M178.518 255.121L178.469 257.958C174.816 260.99 163.533 264.723 156.914 264.229L156.02 257.165C158.436 257.625 161.235 257.9 164.21 257.9C170.328 257.9 175.66 256.775 178.518 255.121Z" fill="#73325A"/>
<path d="M167.49 317.948H169.316C174.109 317.948 177.997 313.399 177.997 307.794V284.846C177.997 277.736 173.068 271.97 166.989 271.97H166.321C159.251 271.97 153.801 279.264 154.753 287.464L157.061 307.312C157.778 313.399 162.226 317.948 167.49 317.948Z" fill="white" stroke="#00AADD" stroke-miterlimit="10"/>
<path d="M175.268 315.18C173.716 316.891 171.615 317.948 169.317 317.948H167.49C162.227 317.948 157.778 313.399 157.071 307.312L154.764 287.464C154.724 287.085 154.685 286.706 154.675 286.339C155.264 281.94 158.515 278.574 162.443 278.574C164.377 278.574 166.165 279.401 167.549 280.78C168.934 282.158 169.906 284.099 170.211 286.339L173.245 310.562C173.471 312.365 174.197 313.974 175.268 315.18Z" fill="#00AADD"/>
<path d="M169.297 283.272H155.578C155.676 283.054 155.794 282.847 155.912 282.652H168.973C169.091 282.847 169.199 283.054 169.297 283.272Z" fill="white"/>
<path d="M170.319 287.223H154.734C154.715 287.017 154.695 286.81 154.685 286.603H170.24L170.319 287.223Z" fill="white"/>
<path d="M170.819 291.186H155.195L155.117 290.566H170.74L170.819 291.186Z" fill="white"/>
<path d="M171.31 295.148H155.657L155.578 294.517H171.231L171.31 295.148Z" fill="white"/>
<path d="M171.811 299.1H156.118L156.04 298.479H171.732L171.811 299.1Z" fill="white"/>
<path d="M172.302 303.062H156.57L156.501 302.442H172.223L172.302 303.062Z" fill="white"/>
<path d="M172.803 307.025H157.032L156.963 306.393H172.724L172.803 307.025Z" fill="white"/>
<path d="M173.303 310.976H158.004C157.915 310.769 157.837 310.562 157.768 310.356H173.215L173.244 310.562C173.264 310.7 173.284 310.838 173.303 310.976Z" fill="white"/>
<path d="M175.061 314.938H160.596C160.4 314.743 160.203 314.525 160.027 314.318H174.609C174.747 314.536 174.904 314.743 175.061 314.938Z" fill="white"/>
<path d="M187.847 127.043V146.385C187.13 144.192 181.454 144.502 175.208 147.27C169.856 149.647 165.84 152.909 165.251 155.172V127.951C165.251 119.853 168.953 112.617 174.639 108.666C182.023 110.171 187.847 117.694 187.847 127.043Z" fill="#FFCF2D"/>
<path d="M164.819 109.539C159.791 113.628 156.59 120.416 156.59 127.951V150.405H128.632L132.491 130.972C134.131 122.69 139.257 116.086 145.935 113.272L164.819 109.539Z" fill="#FFCF2D"/>
<path d="M221.362 205.652V250.733C221.362 247.666 213.654 245.185 204.541 245.185C195.428 245.185 188.043 247.666 188.043 250.733V229.128C188.043 228.118 187.336 227.291 186.472 227.291H136.351C121.277 227.291 110.131 210.878 113.539 193.707L125.637 132.74C127.562 123.012 134.298 115.604 142.714 113.927L145.935 113.284C139.257 116.098 134.131 122.702 132.491 130.983L128.632 150.417H156.59V127.951C156.59 120.416 159.801 113.617 164.819 109.539L169.238 108.666C170.151 108.483 171.045 108.402 171.938 108.402C172.056 108.402 172.164 108.402 172.282 108.402C172.39 108.402 172.498 108.414 172.596 108.414C172.616 108.414 172.636 108.414 172.655 108.414C172.734 108.414 172.822 108.425 172.901 108.425C172.911 108.425 172.93 108.425 172.94 108.425C172.989 108.425 173.038 108.437 173.077 108.437C173.166 108.448 173.244 108.448 173.333 108.46C173.431 108.471 173.539 108.483 173.637 108.494C173.735 108.506 173.824 108.517 173.922 108.529C173.942 108.529 173.961 108.54 173.991 108.54C174.089 108.551 174.197 108.574 174.295 108.586C174.305 108.586 174.315 108.586 174.315 108.586C174.423 108.609 174.531 108.62 174.639 108.643C168.953 112.594 165.251 119.83 165.251 127.928V183.117H202.115C212.74 183.14 221.362 193.213 221.362 205.652Z" fill="#FF5F5D"/>
<path d="M165.457 109.034C160.429 113.123 156.58 120.416 156.58 127.951V150.405H128.622L132.482 130.972C134.122 122.69 138.815 115.96 145.503 113.146" stroke="white" stroke-miterlimit="10" stroke-linecap="round"/>
<path d="M188.043 222.203C188.043 215.805 189.978 209.614 193.503 204.733" stroke="white" stroke-miterlimit="10" stroke-linecap="round"/>
<path d="M147.202 219.917C147.153 219.917 147.104 219.905 147.064 219.871L145.768 219.044C145.621 218.952 145.572 218.745 145.65 218.573C145.729 218.401 145.906 218.343 146.053 218.435L147.349 219.262C147.496 219.354 147.545 219.561 147.467 219.733C147.408 219.848 147.31 219.917 147.202 219.917ZM148.498 219.526C148.39 219.526 148.292 219.457 148.243 219.343C148.164 219.17 148.213 218.964 148.361 218.872L149.657 218.045C149.804 217.953 149.981 218.022 150.059 218.183C150.138 218.355 150.089 218.562 149.942 218.653L148.645 219.48C148.596 219.503 148.547 219.526 148.498 219.526ZM144.609 218.274C144.56 218.274 144.511 218.263 144.472 218.228L143.176 217.402C143.028 217.31 142.979 217.103 143.058 216.931C143.136 216.758 143.313 216.701 143.46 216.793L144.757 217.62C144.904 217.712 144.953 217.918 144.874 218.091C144.816 218.206 144.717 218.274 144.609 218.274ZM151.081 217.872C150.973 217.872 150.874 217.804 150.825 217.689C150.747 217.516 150.796 217.31 150.943 217.218L152.239 216.391C152.465 216.253 152.672 216.092 152.878 215.92C153.005 215.805 153.192 215.839 153.29 215.989C153.388 216.138 153.359 216.356 153.231 216.471C153.005 216.666 152.77 216.839 152.524 217L151.228 217.826C151.179 217.861 151.13 217.872 151.081 217.872ZM142.046 216.575C141.987 216.575 141.928 216.552 141.87 216.506C141.457 216.15 141.074 215.736 140.75 215.265C140.642 215.116 140.662 214.898 140.789 214.783C140.917 214.656 141.104 214.679 141.202 214.829C141.496 215.254 141.84 215.621 142.213 215.943C142.341 216.058 142.37 216.276 142.282 216.425C142.233 216.529 142.144 216.575 142.046 216.575ZM154.115 215.369C154.046 215.369 153.987 215.346 153.928 215.288C153.801 215.173 153.781 214.955 153.889 214.806C154.184 214.381 154.429 213.921 154.626 213.416C154.694 213.244 154.871 213.163 155.019 213.244C155.166 213.324 155.235 213.531 155.166 213.703C154.95 214.254 154.675 214.771 154.351 215.231C154.282 215.323 154.203 215.369 154.115 215.369ZM140.2 213.944C140.092 213.944 139.984 213.875 139.935 213.749C139.719 213.198 139.562 212.623 139.464 212.026C139.434 211.842 139.542 211.659 139.699 211.624C139.856 211.59 140.014 211.716 140.043 211.9C140.131 212.44 140.269 212.957 140.465 213.45C140.534 213.623 140.465 213.829 140.318 213.91C140.279 213.933 140.239 213.944 140.2 213.944ZM155.333 212.267C155.313 212.267 155.293 212.267 155.284 212.267C155.127 212.233 155.019 212.049 155.048 211.865C155.107 211.486 155.136 211.107 155.136 210.728V210.211C155.136 210.016 155.264 209.867 155.431 209.867C155.598 209.867 155.726 210.016 155.726 210.211V210.728C155.726 211.153 155.696 211.578 155.627 211.992C155.598 212.153 155.47 212.267 155.333 212.267ZM139.66 210.591C139.493 210.591 139.365 210.441 139.365 210.246V208.523C139.365 208.328 139.493 208.179 139.66 208.179C139.827 208.179 139.955 208.328 139.955 208.523V210.246C139.955 210.43 139.817 210.591 139.66 210.591ZM155.421 208.833C155.254 208.833 155.127 208.684 155.127 208.489V206.766C155.127 206.571 155.254 206.421 155.421 206.421C155.588 206.421 155.716 206.571 155.716 206.766V208.489C155.716 208.684 155.588 208.833 155.421 208.833ZM139.66 207.145C139.493 207.145 139.365 206.995 139.365 206.8V205.077C139.365 204.882 139.493 204.733 139.66 204.733C139.827 204.733 139.955 204.882 139.955 205.077V206.8C139.955 206.984 139.817 207.145 139.66 207.145ZM155.421 205.388C155.254 205.388 155.127 205.238 155.127 205.043V203.32C155.127 203.125 155.254 202.976 155.421 202.976C155.588 202.976 155.716 203.125 155.716 203.32V205.043C155.716 205.238 155.588 205.388 155.421 205.388ZM139.66 203.699C139.493 203.699 139.365 203.55 139.365 203.355V201.632C139.365 201.436 139.493 201.287 139.66 201.287C139.827 201.287 139.955 201.436 139.955 201.632V203.355C139.955 203.538 139.817 203.699 139.66 203.699ZM155.421 201.942C155.254 201.942 155.127 201.792 155.127 201.597V199.874C155.127 199.679 155.254 199.53 155.421 199.53C155.588 199.53 155.716 199.679 155.716 199.874V201.597C155.716 201.792 155.588 201.942 155.421 201.942ZM139.66 200.253C139.493 200.253 139.365 200.104 139.365 199.909V198.427H140.161C140.328 198.427 140.455 198.577 140.455 198.772C140.455 198.967 140.328 199.116 140.161 199.116H139.955V199.909C139.955 200.093 139.817 200.253 139.66 200.253ZM154.891 199.116H153.418C153.251 199.116 153.123 198.967 153.123 198.772C153.123 198.577 153.251 198.427 153.418 198.427H154.891C155.058 198.427 155.185 198.577 155.185 198.772C155.185 198.967 155.058 199.116 154.891 199.116ZM151.945 199.116H150.472C150.305 199.116 150.177 198.967 150.177 198.772C150.177 198.577 150.305 198.427 150.472 198.427H151.945C152.112 198.427 152.239 198.577 152.239 198.772C152.239 198.967 152.112 199.116 151.945 199.116ZM148.999 199.116H147.526C147.359 199.116 147.231 198.967 147.231 198.772C147.231 198.577 147.359 198.427 147.526 198.427H148.999C149.166 198.427 149.293 198.577 149.293 198.772C149.293 198.967 149.166 199.116 148.999 199.116ZM146.053 199.116H144.58C144.413 199.116 144.285 198.967 144.285 198.772C144.285 198.577 144.413 198.427 144.58 198.427H146.053C146.22 198.427 146.347 198.577 146.347 198.772C146.347 198.967 146.22 199.116 146.053 199.116ZM143.107 199.116H141.634C141.467 199.116 141.339 198.967 141.339 198.772C141.339 198.577 141.467 198.427 141.634 198.427H143.107C143.274 198.427 143.401 198.577 143.401 198.772C143.401 198.967 143.274 199.116 143.107 199.116Z" fill="white"/>
<path d="M119.411 218.01C119.303 218.01 119.205 217.941 119.156 217.827C119.077 217.654 119.126 217.448 119.274 217.356L120.472 216.586C120.501 216.563 120.531 216.552 120.56 216.529C120.698 216.437 120.884 216.494 120.963 216.655C121.041 216.816 120.992 217.034 120.855 217.126C120.825 217.149 120.796 217.172 120.757 217.183L119.558 217.953C119.509 217.999 119.46 218.01 119.411 218.01ZM121.896 216.173C121.817 216.173 121.739 216.138 121.68 216.058C121.572 215.92 121.581 215.702 121.699 215.575C122.043 215.208 122.347 214.783 122.613 214.335C122.701 214.174 122.887 214.14 123.025 214.243C123.162 214.346 123.192 214.565 123.104 214.725C122.819 215.219 122.475 215.679 122.102 216.092C122.033 216.15 121.964 216.173 121.896 216.173ZM123.536 213.347C123.496 213.347 123.467 213.336 123.428 213.324C123.28 213.255 123.202 213.06 123.261 212.876C123.428 212.359 123.545 211.831 123.614 211.291C123.634 211.107 123.781 210.97 123.948 210.993C124.105 211.016 124.223 211.188 124.203 211.383C124.135 211.98 124.007 212.566 123.82 213.129C123.761 213.267 123.653 213.347 123.536 213.347ZM123.958 209.97C123.791 209.97 123.663 209.821 123.663 209.626V207.903C123.663 207.708 123.791 207.558 123.958 207.558C124.125 207.558 124.252 207.708 124.252 207.903V209.626C124.252 209.81 124.125 209.97 123.958 209.97ZM123.958 206.525C123.791 206.525 123.663 206.375 123.663 206.18V204.457C123.663 204.262 123.791 204.113 123.958 204.113C124.125 204.113 124.252 204.262 124.252 204.457V206.18C124.252 206.364 124.125 206.525 123.958 206.525ZM123.958 203.079C123.791 203.079 123.663 202.93 123.663 202.734V201.011C123.663 200.816 123.791 200.667 123.958 200.667C124.125 200.667 124.252 200.816 124.252 201.011V202.734C124.252 202.918 124.125 203.079 123.958 203.079ZM123.958 199.633C123.791 199.633 123.663 199.484 123.663 199.289V199.116H122.927C122.76 199.116 122.632 198.967 122.632 198.772C122.632 198.577 122.76 198.427 122.927 198.427H124.252V199.289C124.252 199.472 124.125 199.633 123.958 199.633ZM121.454 199.116H119.981C119.814 199.116 119.686 198.967 119.686 198.772C119.686 198.577 119.814 198.427 119.981 198.427H121.454C121.621 198.427 121.748 198.577 121.748 198.772C121.748 198.967 121.611 199.116 121.454 199.116ZM118.508 199.116H117.035C116.868 199.116 116.74 198.967 116.74 198.772C116.74 198.577 116.868 198.427 117.035 198.427H118.508C118.675 198.427 118.802 198.577 118.802 198.772C118.802 198.967 118.665 199.116 118.508 199.116ZM115.562 199.116H114.089C113.922 199.116 113.794 198.967 113.794 198.772C113.794 198.577 113.922 198.427 114.089 198.427H115.562C115.729 198.427 115.856 198.577 115.856 198.772C115.856 198.967 115.719 199.116 115.562 199.116Z" fill="white"/>
<path d="M187.847 146.386C188.564 148.58 184.027 152.473 177.791 155.241C171.555 158.01 165.968 158.435 165.251 156.229C164.534 154.024 168.963 150.05 175.208 147.282C181.454 144.514 187.13 144.181 187.847 146.386Z" fill="#FF5F5D"/>
<path d="M191.333 217.643V218.86C191.009 218.768 190.665 218.723 190.321 218.723H189.055C187.179 218.723 185.578 217.321 184.97 215.369L188.564 214.806C190.027 214.576 191.333 215.908 191.333 217.643Z" fill="#73325A"/>
<path d="M194.652 223.788V233.137C194.652 235.319 193.14 237.088 191.274 237.088H187.513C186.58 237.088 185.735 236.652 185.127 235.928C184.518 235.216 184.135 234.228 184.135 233.137H186.58C187.385 233.137 188.033 232.379 188.033 231.437V228.991C188.033 228.049 187.385 227.291 186.58 227.291H174.079C169.199 227.291 165.241 222.662 165.241 216.954V155.183C165.83 152.921 169.847 149.647 175.199 147.281C178.852 145.662 182.318 144.881 184.704 144.95V213.657C184.704 216.46 186.649 218.734 189.045 218.734H190.312C192.708 218.722 194.652 220.985 194.652 223.788Z" fill="#A0505A"/>
<path d="M184.704 144.938V151.186C182.927 152.588 180.521 154.023 177.781 155.229C171.536 157.997 165.958 158.422 165.241 156.217V155.172C165.83 152.909 169.847 149.636 175.199 147.27C178.861 145.65 182.318 144.869 184.704 144.938Z" fill="#73325A"/>
<path d="M168.374 98.4096L164.681 109.539L145.65 113.525L150.619 98.4096H168.374Z" fill="#A0505A"/>
<path d="M168.374 98.4096L166.38 104.428L147.506 107.874L150.619 98.4096H168.374Z" fill="#73325A"/>
<path d="M179.529 75.7598C179.529 77.2644 177.3 78.9298 174.727 80.3311C171.221 82.2492 167.087 83.7079 167.087 83.7079L164.298 89.8527C168.089 92.2073 169.572 96.434 170.161 99.3858C170.534 101.269 170.534 102.613 170.534 102.613H143.804C143.804 102.613 136.783 76.0124 153.703 69.6494C164.053 65.7557 179.529 72.1877 179.529 75.7598Z" fill="white" stroke="#FFCF2D" stroke-miterlimit="10" stroke-linecap="round"/>
<path d="M151.228 73.4397C154.9 73.4397 157.876 69.9583 157.876 65.6638C157.876 61.3694 154.9 57.888 151.228 57.888C147.556 57.888 144.58 61.3694 144.58 65.6638C144.58 69.9583 147.556 73.4397 151.228 73.4397Z" fill="white" stroke="#FFCF2D" stroke-miterlimit="10" stroke-linecap="round"/>
<path d="M170.151 99.3861C169.601 96.5951 168.226 92.6211 164.839 90.2205H163.965C163.159 90.2205 162.423 89.8415 161.893 89.2213C161.362 88.6011 161.038 87.7396 161.038 86.7978C161.038 84.9027 162.344 83.3751 163.965 83.3751L167.667 83.4669H167.765C167.834 83.444 167.902 83.4095 167.981 83.3865C168.983 83.1339 172.154 82.238 174.786 80.6989L175.091 82.8237L176.073 89.6348C176.74 94.3095 174.001 98.6166 170.151 99.3861Z" fill="#A0505A"/>
<path d="M175.081 82.812C171.86 84.3396 167.657 83.4552 167.657 83.4552C167.657 83.4552 171.614 82.5363 174.776 80.6871L175.081 82.812Z" fill="#73325A"/>
<path d="M166.243 87.4522C166.243 86.1429 165.339 85.0862 164.22 85.0862" stroke="#73325A" stroke-miterlimit="10" stroke-linecap="round"/>
<path d="M176.642 233.137L188.043 344.112" stroke="#66B0F0" stroke-miterlimit="10"/>
<path d="M127.219 233.137L115.828 344.112" stroke="#66B0F0" stroke-miterlimit="10"/>
<path d="M119.735 306.002H184.125" stroke="#66B0F0" stroke-miterlimit="10"/>
<path d="M117.31 233.137H186.55C187.375 233.137 188.043 232.356 188.043 231.391V229.025C188.043 228.06 187.375 227.279 186.55 227.279H117.31C116.485 227.279 115.817 228.06 115.817 229.025V231.391C115.827 232.356 116.495 233.137 117.31 233.137Z" fill="white" stroke="#FFCF2D" stroke-miterlimit="10"/>
</svg>
