<svg width="1440" height="142" viewBox="0 0 1440 142" fill="none" xmlns="http://www.w3.org/2000/svg">
<path d="M-9.5 130.196C83.3333 62.363 286.513 -17.9942 442.5 48.1963C611 119.696 1008.67 72.0297 1205 23.1963C1344 -11.3766 1521.2 -24.6036 1704 130.196" stroke="#3F448F" stroke-opacity="0.55"/>
<path d="M-47 18.1963C45.8604 71.7504 249.099 135.192 405.132 82.935C573.681 26.486 971.464 64.1186 1167.85 102.672C1306.89 129.968 1484.15 140.41 1667 18.1963" stroke="#3F448F" stroke-opacity="0.55"/>
<path d="M-8 141.393C84.8333 73.5593 288.013 -6.7979 444 59.3926C612.5 130.893 1010.17 83.226 1206.5 34.3926C1345.5 -0.180353 1522.7 -13.4073 1705.5 141.393" stroke="#3F448F" stroke-opacity="0.55"/>
<path d="M-46 9.19629C46.8604 62.7504 250.099 126.192 406.132 73.935C574.681 17.486 972.464 55.1186 1168.85 93.6724C1307.89 120.968 1485.15 131.41 1668 9.19629" stroke="#3F448F" stroke-opacity="0.55"/>
</svg>
