<svg width="24" height="16" viewBox="0 0 24 16" fill="none" xmlns="http://www.w3.org/2000/svg">
<path d="M19.967 1.35636C22.5659 4.84029 23.8494 8.77007 23.3696 13.2941C23.3676 13.3133 23.3567 13.3309 23.3394 13.3424C21.3713 14.66 19.4645 15.4597 17.5844 15.99C17.5697 15.994 17.5541 15.9938 17.5396 15.9893C17.5251 15.9849 17.5125 15.9764 17.5035 15.9651C17.0692 15.414 16.6745 14.8331 16.3288 14.2231C16.3089 14.1872 16.327 14.1439 16.3679 14.1297C16.9947 13.9144 17.5907 13.6563 18.164 13.3508C18.2091 13.3267 18.212 13.2677 18.1703 13.2393C18.0486 13.157 17.9281 13.0704 17.8128 12.9839C17.7912 12.9679 17.7621 12.9647 17.7377 12.9755C14.0157 14.5425 9.93855 14.5425 6.1726 12.9755C6.14815 12.9655 6.1191 12.9689 6.0981 12.9847C5.98304 13.0712 5.86222 13.157 5.74169 13.2393C5.69999 13.2677 5.70344 13.3267 5.74889 13.3508C6.32218 13.6506 6.91819 13.9144 7.54413 14.1308C7.58469 14.1449 7.60396 14.1872 7.58382 14.2231C7.24554 14.8339 6.85088 15.4148 6.40847 15.9658C6.3892 15.9881 6.35756 15.9984 6.32764 15.99C4.45646 15.4597 2.54961 14.66 0.581493 13.3424C0.565097 13.3309 0.553303 13.3125 0.551577 13.2934C0.150589 9.3801 0.96781 5.4178 3.95106 1.35558C3.95825 1.34482 3.96918 1.33643 3.98184 1.33145C5.44973 0.717222 7.02233 0.265339 8.66597 0.00727013C8.69589 0.00307389 8.7258 0.0156626 8.74134 0.039791C8.94442 0.367622 9.17656 0.788033 9.33361 1.1316C11.0661 0.890317 12.8257 0.890317 14.5945 1.1316C14.7516 0.795377 14.9756 0.367622 15.1779 0.039791C15.1851 0.0278212 15.1962 0.0182316 15.2098 0.0123913C15.2233 0.00655106 15.2385 0.0047587 15.2532 0.00727013C16.8977 0.266126 18.4703 0.718009 19.9371 1.33145C19.95 1.33643 19.9607 1.34482 19.967 1.35636ZM10.2144 8.79682C10.2325 7.63997 9.30744 6.6827 8.14618 6.6827C6.99442 6.6827 6.07825 7.63158 6.07825 8.79682C6.07825 9.96181 7.01254 10.9107 8.14618 10.9107C9.29823 10.9107 10.2144 9.96181 10.2144 8.79682ZM17.8608 8.79682C17.8789 7.63997 16.9538 6.6827 15.7929 6.6827C14.6408 6.6827 13.7246 7.63158 13.7246 8.79682C13.7246 9.96181 14.6589 10.9107 15.7929 10.9107C16.9538 10.9107 17.8608 9.96181 17.8608 8.79682Z" fill="#0B0F53"/>
</svg>
