<svg width="24" height="23" viewBox="0 0 24 23" fill="none" xmlns="http://www.w3.org/2000/svg">
<path d="M18.5789 0.285645H4.57894C1.81794 0.285645 -0.421062 2.52464 -0.421062 5.28565V19.2856C-0.421062 22.0466 1.81794 24.2856 4.57894 24.2856H18.5789C21.3409 24.2856 23.5789 22.0466 23.5789 19.2856V5.28565C23.5789 2.52464 21.3409 0.285645 18.5789 0.285645ZM7.57894 19.2856H4.57894V8.28565H7.57894V19.2856ZM6.07894 7.01765C5.11294 7.01765 4.32894 6.22764 4.32894 5.25364C4.32894 4.27964 5.11294 3.48965 6.07894 3.48965C7.04494 3.48965 7.82894 4.27964 7.82894 5.25364C7.82894 6.22764 7.04594 7.01765 6.07894 7.01765ZM19.5789 19.2856H16.5789V13.6816C16.5789 10.3136 12.5789 10.5686 12.5789 13.6816V19.2856H9.57894V8.28565H12.5789V10.0506C13.9749 7.46465 19.5789 7.27365 19.5789 12.5266V19.2856Z" fill="#292C5D"/>
</svg>
