<svg width="27" height="23" viewBox="0 0 27 23" fill="none" xmlns="http://www.w3.org/2000/svg">
<path d="M13.0355 8.36423C13.8993 5.04879 14.955 2.90023 16.1697 1.34271C17.0761 0.180237 17.5438 -0.188647 17.0118 1.09111C17.2468 0.859517 17.5851 0.551379 17.8474 0.386792C19.3172 -0.466002 19.213 0.248883 18.2002 1.01518C20.964 -0.200755 20.8682 1.34763 17.945 2.11885C20.3351 2.17426 22.876 4.04454 23.6072 8.02274C23.7084 8.57335 23.5873 8.52102 24.0458 8.62075C25.0357 8.83624 25.9669 8.823 26.8748 8.46838C26.7765 9.29141 25.8926 9.82622 24.5133 10.1795C24.0023 10.3103 23.8975 10.276 24.5101 10.4454C25.2641 10.654 26.108 10.7079 27 10.6565C26.3051 11.6401 25.1976 12.143 23.8276 12.1636C22.9707 16.0113 21.0129 18.7665 18.5348 20.4959C12.7166 24.5569 4.24706 23.9677 0 16.5873C2.78681 19.2765 6.91547 19.8689 9.98181 16.1206C7.9731 16.1212 7.45292 14.2713 9.04542 13.272C7.53728 13.253 6.57861 12.6665 6.01596 11.6041C5.80226 11.2009 5.80009 11.1699 6.14846 10.8603C6.53171 10.5198 7.05373 10.3683 7.59302 10.3173C6.03223 9.76794 5.07773 8.76492 4.7473 7.42011C4.6379 6.9753 4.62088 6.99787 4.98903 6.88295C5.34883 6.77069 5.81202 6.71076 6.22732 6.68563C5.00146 5.77116 4.26884 4.65056 4.08234 3.41154C3.90645 2.24219 4.08752 2.54222 4.79978 2.87725C7.98303 4.37495 11.1565 5.98316 13.0355 8.36423Z" fill="#292C5D"/>
</svg>
