<svg width="20" height="13" viewBox="0 0 20 13" fill="none" xmlns="http://www.w3.org/2000/svg">
<path d="M10.4431 12.983L6.33986 12.9125C5.01133 12.8879 3.67949 12.9369 2.37701 12.6824C0.395628 12.302 0.25526 10.4371 0.10838 8.87274C-0.0940059 6.67349 -0.0156563 4.43432 0.366272 2.25343C0.581883 1.02972 1.4304 0.299528 2.7426 0.220069C7.17225 -0.0683005 11.6314 -0.0341257 16.0512 0.100409C16.518 0.112742 16.988 0.18015 17.4482 0.256879C19.7203 0.63111 19.7757 2.7445 19.923 4.52357C20.0698 6.32101 20.0078 8.12767 19.7271 9.91287C19.5019 11.391 19.0709 12.6305 17.2524 12.7501C14.9738 12.9066 12.7476 13.0326 10.4626 12.9925C10.4627 12.983 10.4496 12.983 10.4431 12.983ZM8.03079 9.24085C9.74786 8.31446 11.4322 7.4035 13.1394 6.48332C11.4191 5.55692 9.73804 4.64596 8.03079 3.72578V9.24085Z" fill="white"/>
</svg>
