<svg width="351" height="351" viewBox="0 0 351 351" fill="none" xmlns="http://www.w3.org/2000/svg">
<rect width="351" height="351" fill="white"/>
<circle cx="234" cy="104" r="19" fill="#356EB7"/>
<circle cx="117" cy="104" r="19" fill="#356EB7"/>
<path d="M211.894 197.189C183.149 213.298 153.396 204.927 139.143 197.198C137.753 196.444 136 197.426 136 199.007V253.323C136 255.954 135.347 258.623 133.553 260.547C124.659 270.086 109.533 267.569 101.372 261.312C98.9314 259.442 98 256.334 98 253.259V159.85C98.5 149.683 106.8 134.05 136 152.85C172.5 176.35 200 166.85 220.5 149.85C236.023 136.977 249.934 147.264 253.497 156.033C253.885 156.989 253.995 158.023 253.985 159.055L253.051 253.82C253.018 257.163 251.875 260.505 249.282 262.615C238.264 271.583 226.189 267.027 219.402 262.54C216.371 260.536 215 256.969 215 253.335V198.958C215 197.387 213.265 196.421 211.894 197.189Z" fill="#356EB7"/>
</svg>
